<svg width="1272" height="290" fill="none" xmlns="http://www.w3.org/2000/svg"><path d="M635.503 289.869c350.978 0 635.507-9.679 635.507-21.619 0-11.939-284.529-21.618-635.507-21.618C284.524 246.632 0 256.311 0 268.25c0 11.94 284.524 21.619 635.503 21.619z" fill="#77AAE9"/><path d="M635.503 289.869c350.978 0 635.507-9.679 635.507-21.619 0-11.939-284.529-21.618-635.507-21.618C284.524 246.632 0 256.311 0 268.25c0 11.94 284.524 21.619 635.503 21.619z" fill="#8BB637"/><path d="M635.503 289.869c350.978 0 635.507-9.679 635.507-21.619 0-11.939-284.529-21.618-635.507-21.618C284.524 246.632 0 256.311 0 268.25c0 11.94 284.524 21.619 635.503 21.619z" fill="#0C8774"/><path d="M635.503 289.869c350.978 0 635.507-9.679 635.507-21.619 0-11.939-284.529-21.618-635.507-21.618C284.524 246.632 0 256.311 0 268.25c0 11.94 284.524 21.619 635.503 21.619z" fill="#0C8774"/><mask id="mask0_136_1255" style="mask-type:luminance" maskUnits="userSpaceOnUse" x="0" y="246" width="1272" height="44"><path d="M635.503 289.869c350.978 0 635.507-9.679 635.507-21.619 0-11.939-284.529-21.618-635.507-21.618C284.524 246.632 0 256.311 0 268.25c0 11.94 284.524 21.619 635.503 21.619z" fill="#fff"/></mask><g mask="url(#mask0_136_1255)"><path d="M652.533 279.908c326.444 0 591.077-11.257 591.077-25.142 0-13.886-264.633-25.142-591.077-25.142-326.445 0-591.08 11.256-591.08 25.142 0 13.885 264.635 25.142 591.08 25.142z" fill="#4992CE"/><path d="M652.533 279.908c326.444 0 591.077-11.257 591.077-25.142 0-13.886-264.633-25.142-591.077-25.142-326.445 0-591.08 11.256-591.08 25.142 0 13.885 264.635 25.142 591.08 25.142z" fill="#8BB637"/><path d="M652.533 279.908c326.444 0 591.077-11.257 591.077-25.142 0-13.886-264.633-25.142-591.077-25.142-326.445 0-591.08 11.256-591.08 25.142 0 13.885 264.635 25.142 591.08 25.142z" fill="#6D8D2E"/><path d="M652.533 279.908c326.444 0 591.077-11.257 591.077-25.142 0-13.886-264.633-25.142-591.077-25.142-326.445 0-591.08 11.256-591.08 25.142 0 13.885 264.635 25.142 591.08 25.142z" fill="#0B7363"/></g><path d="M414.676 218.962s4.237-51.18-44.263-60.09c-48.5-8.909-173.746-92.95-222.472-80.927-20.514 5.06-1.529 62.858-13.92 93.776-10.44 26.048-63.874 75.777-25.102 86.223h311.558l-5.801-38.977v-.005z" fill="#BCDEF9"/><path d="M414.676 218.962s4.237-51.18-44.263-60.09c-48.5-8.909-173.746-92.95-222.472-80.927-20.514 5.06-1.529 62.858-13.92 93.776-10.44 26.048-63.874 75.777-25.102 86.223h311.558l-5.801-38.977v-.005z" fill="#0C8774"/><mask id="mask1_136_1255" style="mask-type:luminance" maskUnits="userSpaceOnUse" x="95" y="76" width="326" height="182"><path d="M414.676 218.962s4.237-51.18-44.263-60.09c-48.5-8.909-173.746-92.95-222.472-80.927-20.514 5.06-1.529 62.858-13.92 93.776-10.44 26.048-63.874 75.777-25.102 86.223h311.558l-5.801-38.977v-.005z" fill="#fff"/></mask><g opacity=".42" mask="url(#mask1_136_1255)"><path d="M218.249 92.306s-36.175 105.438-2.382 141.452c33.792 36.014 101.593 50.104 101.593 50.104h103.017V110.15L218.249 92.31" fill="#77AAE9"/><path d="M218.249 92.306s-36.175 105.438-2.382 141.452c33.792 36.014 101.593 50.104 101.593 50.104h103.017V110.15L218.249 92.31" fill="#0B7363"/></g><path d="M389.302 136.914s75.422-7.618 108.949-19.887c33.526-12.268-16.764 140.467-16.764 140.467H357.801l31.501-120.58z" fill="#89503D"/><path d="M398.384 165.164c0 44.538-44.749 64.104-95.149 64.104s-87.362-19.566-87.362-64.104 45.381-99.247 95.781-99.247c50.401 0 86.735 54.709 86.735 99.247h-.005z" fill="#9E5C46"/><mask id="mask2_136_1255" style="mask-type:luminance" maskUnits="userSpaceOnUse" x="215" y="65" width="184" height="165"><path d="M398.384 165.164c0 44.538-44.749 64.104-95.149 64.104s-87.362-19.566-87.362-64.104 45.381-99.247 95.781-99.247c50.401 0 86.735 54.709 86.735 99.247h-.005z" fill="#fff"/></mask><g mask="url(#mask2_136_1255)"><path d="M379.499 106.481s9.422 140.266-150.238 97.46c0 0 13.8 56.215 87.512 39.618 73.708-16.598 95.877-51.11 95.32-75.617-.556-24.511-32.594-61.461-32.594-61.461z" fill="#8A4F3D"/></g><path d="M326.387 67.629a191.4 191.4 0 00-44.919-6.152c-4.052-.07-8.199 0-11.99 1.437-.622.235-1.294.576-1.484 1.211-.311 1.036.852 1.892 1.875 2.253 1.595.565 3.29.84 4.979.81-5.375.506-10.75 1.007-16.131 1.512-4.553.426-9.613 1.106-12.516 4.635-.732.886-1.204 2.368-.281 3.059.391.295.918.325 1.404.34 3.49.135 6.985.27 10.48.4a50.642 50.642 0 00-20.88 9.015c-.672.495-1.379 1.081-1.554 1.897-.396 1.852 1.995 2.948 3.871 3.243 11.663 1.832 23.568.806 35.332-.22 9.537-.83 19.11-1.672 28.447-3.799 4.713-1.076 9.507-2.563 13.163-5.721 3.655-3.163 5.897-8.379 4.307-12.939" fill="#9E5C46"/><path d="M262.723 169.283s12.686 8.114 19.431-5.145c0 0-6.74 7.323-19.431 5.145zm73.382-10.411s8.58 11.102 21.698 1.992c0 0-10.224 3.734-21.698-1.992z" fill="#231F20"/><path d="M332.509 151.99c6.072-6.872 42.964.3 56.793 3.283-.105-19.265-12.064-36.589-35.437-31.343-10.876 2.442-20.845 8.669-31.516 11.993-1.028-1.142-2.407-1.998-3.75-2.778a131.077 131.077 0 00-6.013-3.284c-1.008-.521-2.256-1.021-3.224-.42-.832.52-1.043 1.696-.737 2.627.301.931.993 1.682 1.67 2.393a75.737 75.737 0 00-10.536-8.224c-.476-.31-1.063-.62-1.584-.39-.261.115-.447.35-.572.605-.582 1.162-.035 2.558.647 3.664a15.839 15.839 0 004.688 4.841 79.199 79.199 0 00-9.512-5.036c-2.547-1.131-5.23-2.137-8.018-2.152-.562 0-1.229.105-1.459.615-.196.436.035.936.301 1.332 1.554 2.367 4.157 3.809 6.714 5.025.286.135.572.271.862.401a81.256 81.256 0 006.454 2.643c-10.24-.831-20.218-2.723-30.182-2.408-7.136.225-14.266 1.592-21.482 5.296-14.091 7.233-20.544 19.701-18.764 33.621 11.583-7.103 45.035-23.796 57.255-15.667 12.551 8.354-26.286 38.396-38.852 47.671 34.71 29.562 103.609 17.679 131.314-18.289-32.579-1.612-52.04-28.116-45.055-36.014l-.005-.005z" fill="#ECC18F"/><path d="M331.004 201.844c1.169 1.827 1.72 4.089 1.289 6.216-.09.456-.236.916-.536 1.277-.502.6-1.344.8-2.121.775-2.182-.06-4.213-1.746-4.679-3.874-.256-1.181-.251-2.708-1.364-3.183-.346-.15-.742-.145-1.113-.08-1.735.305-3.074 1.907-4.834 2.042-2.257.17-3.982-2.102-6.208-2.518-.652-.12-1.339-.08-1.951-.34-.606-.26-1.103-.991-.792-1.572.281-.525.993-.595 1.595-.61a59.457 59.457 0 0010.004-1.077c1.514-.295 2.993-.71 4.498-1.036 1.043-.225 1.85-.045 2.742.541 1.369.891 2.588 2.067 3.465 3.444l.005-.005z" fill="#fff"/><path d="M320.395 198.069c-1.525.251-3.074.331-4.604.521l-2.306.16c-.376.04-.753.065-1.129.08-1.073-2.893-1.328-7.293-1.313-10.977 6.233-.655 10.951-4.559 10.62-8.899-.336-4.46-5.867-7.678-12.355-7.188-6.489.491-11.473 4.5-11.137 8.955.295 3.909 4.588 6.867 10.018 7.203 0 3.558.246 7.798 1.209 11.016a119.17 119.17 0 01-7.492.015c-3.109-.075-6.223-.25-9.412-.48 2.904 1.371 6.038 2.177 9.202 2.698 3.169.52 6.393.686 9.607.54 1.61-.04 3.21-.26 4.809-.445.793-.145 1.585-.285 2.377-.446.396-.085.792-.145 1.178-.245l1.169-.32c3.119-.786 6.102-2.087 8.85-3.699-3.174.505-6.202 1.166-9.291 1.501v.01z" fill="#352F31"/><path d="M267.383 145.473c-1.655.165-3.275.45-4.839.881-1.59.435-3.365 1.401-4.172 2.908-.873 1.632-.231 3.083 1.75 3.118 7.867.145 15.69-1.006 23.568-.761.777.025 1.574.056 2.326-.14 4.744-1.231-1.288-4.324-3.114-4.74-4.889-1.121-10.35-1.787-15.519-1.271v.005zm70.005-8.379c-1.654.165-3.274.45-4.839.881-1.589.435-3.364 1.401-4.172 2.908-.872 1.632-.23 3.083 1.75 3.118 7.868.145 15.691-1.006 23.568-.761.778.025 1.575.055 2.327-.14 4.744-1.231-1.289-4.324-3.114-4.74-4.889-1.121-10.35-1.787-15.52-1.271v.005z" fill="#9E5C46"/><path d="M294.57 65.917a203.68 203.68 0 00-7.647-1.747c-2.553-.525-5.125-1.01-7.687-1.261a20.491 20.491 0 00-1.906-.11c-.622 0-1.254.025-1.77.165-.251.06-.466.185-.481.24-.01.025 0 .01 0 .04.01.03 0 .02.015.09l.04.17c.13.446.426.816.867 1.117.878.61 2.116.906 3.33 1.066 1.223.155 2.517.19 3.736.115a.919.919 0 01.972.861.915.915 0 01-.827.966h-.025c-3.42.335-6.855.69-10.265 1.151-3.405.47-6.814.966-10.139 1.677-1.655.36-3.315.77-4.809 1.357a8.75 8.75 0 00-1.043.48c-.311.17-.587.375-.707.51-.055.03-.1.29-.095.246-.02 0 .01-.015-.01-.01 0 0 .02.01.015.03.035.02.055.045.085.075.05.03.1.06.146.095.501.26 1.308.425 2.091.516.797.09 1.629.12 2.462.12 1.669 0 3.384-.115 5.039-.3h.025c.597-.07 1.139.36 1.204.955a1.09 1.09 0 01-.777 1.167 235.58 235.58 0 00-10.762 3.433c-3.55 1.227-7.11 2.498-10.45 4.115-.827.405-1.644.84-2.361 1.346-.351.25-.697.526-.908.801a.803.803 0 00-.166.305c-.005.046-.015.06.061.156.09.085.23.195.406.275.175.09.411.165.612.25l.631.25c.216.076.437.13.652.196l.657.195.677.14c.226.045.451.095.677.135l.687.09c3.681.436 7.497.04 11.167-.86a31.854 31.854 0 01-5.516 1.42c-1.88.306-3.806.456-5.736.331l-.727-.05c-.241-.025-.482-.065-.722-.095l-.722-.1-.718-.16c-.24-.055-.481-.105-.717-.17l-.702-.236c-.24-.085-.456-.145-.712-.255a2.734 2.734 0 01-.772-.49c-.256-.236-.486-.681-.451-1.112.03-.42.2-.735.371-.98.351-.491.747-.822 1.143-1.142.802-.62 1.64-1.116 2.487-1.587 1.695-.93 3.44-1.712 5.195-2.462a137.143 137.143 0 015.306-2.123 237.87 237.87 0 0110.786-3.698l.451 2.122c-1.78.21-3.515.34-5.31.355-.893 0-1.795-.02-2.718-.115-.928-.115-1.861-.23-2.914-.75l-.401-.251a5.38 5.38 0 01-.406-.35c-.13-.16-.261-.306-.361-.496-.09-.2-.201-.4-.226-.616-.04-.215-.07-.435-.04-.625.015-.2.04-.396.101-.55.07-.301.285-.732.516-.992.451-.516.913-.79 1.354-1.036.441-.24.878-.426 1.314-.6 1.735-.657 3.45-1.057 5.175-1.427 3.445-.711 6.89-1.197 10.35-1.577 3.46-.375 6.909-.706 10.384-.901l.121 1.832c-1.399.03-2.728-.05-4.092-.27-1.349-.246-2.743-.57-4.006-1.497-.617-.46-1.169-1.181-1.354-2.012-.036-.205-.091-.39-.071-.706.02-.3.161-.626.361-.85.417-.446.858-.551 1.234-.646.762-.16 1.449-.136 2.136-.105.682.04 1.344.12 2.006.215 2.628.415 5.175 1.066 7.702 1.772a121.64 121.64 0 017.487 2.392l-.005-.015z" fill="#ECC18F"/><path d="M433.791 257.498s13.058-127.367 24.23-141.167c11.177-13.799 186.939-43.812 254.795-50.409 281.21-27.34 506.904 184.604 456.464 190.881-16.18 2.012-106.68.695-106.68.695H433.791z" fill="#BCDEF9"/><path d="M433.791 257.498s13.058-127.367 24.23-141.167c11.177-13.799 186.939-43.812 254.795-50.409 281.21-27.34 506.904 184.604 456.464 190.881-16.18 2.012-106.68.695-106.68.695H433.791z" fill="#8BB637"/><path d="M433.791 257.498s13.058-127.367 24.23-141.167c11.177-13.799 186.939-43.812 254.795-50.409 281.21-27.34 506.904 184.604 456.464 190.881-16.18 2.012-106.68.695-106.68.695H433.791z" fill="#0C8774"/><mask id="mask3_136_1255" style="mask-type:luminance" maskUnits="userSpaceOnUse" x="433" y="63" width="744" height="195"><path d="M433.791 257.498s13.058-127.367 24.23-141.167c11.177-13.799 186.939-43.812 254.795-50.409 281.21-27.34 506.904 184.604 456.464 190.881-16.18 2.012-106.68.695-106.68.695H433.791z" fill="#fff"/></mask><g mask="url(#mask3_136_1255)"><path d="M589.495 135.867c2.191 0 4.493-.951 6.048-2.497 1.484-1.482 2.597-3.909 2.502-6.037-.101-2.207-.828-4.495-2.502-6.036-1.675-1.532-3.731-2.498-6.048-2.498-2.191 0-4.493.951-6.047 2.498-1.555 1.546-2.598 3.909-2.503 6.036.101 2.208.828 4.495 2.503 6.037 1.675 1.531 3.73 2.497 6.047 2.497zm45.275 58.629c2.192 0 4.493-.951 6.048-2.498 1.484-1.482 2.597-3.909 2.502-6.037-.1-2.207-.827-4.494-2.502-6.036-1.675-1.532-3.731-2.498-6.048-2.498-2.191 0-4.492.951-6.047 2.498-1.554 1.547-2.597 3.909-2.502 6.036.1 2.208.827 4.495 2.502 6.037 1.675 1.532 3.731 2.498 6.047 2.498zm58.735-94.052c2.191 0 4.493-.95 6.047-2.497 1.485-1.482 2.598-3.91 2.503-6.037-.101-2.207-.828-4.495-2.503-6.036-1.674-1.532-3.73-2.498-6.047-2.498-2.191 0-4.493.951-6.048 2.498-1.554 1.546-2.597 3.909-2.502 6.036.101 2.208.828 4.495 2.502 6.037 1.675 1.531 3.731 2.497 6.048 2.497zm-35.487 41.53c2.192 0 4.493-.951 6.048-2.498 1.554-1.546 2.597-3.909 2.502-6.036-.1-2.207-.828-4.495-2.502-6.037-1.675-1.531-3.731-2.497-6.048-2.497-2.191 0-4.493.951-6.047 2.497-1.484 1.482-2.598 3.91-2.502 6.037.1 2.207.827 4.495 2.502 6.036 1.675 1.532 3.731 2.498 6.047 2.498zm-28.14-54.964c2.191 0 4.493-.951 6.047-2.498 1.555-1.547 2.598-3.91 2.502-6.036-.1-2.208-.827-4.495-2.502-6.037-1.675-1.532-3.731-2.498-6.047-2.498-2.192 0-4.493.951-6.048 2.498-1.484 1.482-2.597 3.91-2.502 6.037.1 2.207.827 4.494 2.502 6.036 1.675 1.532 3.731 2.498 6.048 2.498zm-129.709 52.522c2.191 0 4.493-.952 6.047-2.498 1.484-1.482 2.598-3.909 2.502-6.037-.1-2.207-.827-4.495-2.502-6.036-1.675-1.532-3.731-2.498-6.047-2.498-2.192 0-4.493.951-6.048 2.498-1.484 1.481-2.597 3.909-2.502 6.036.1 2.208.827 4.495 2.502 6.037 1.675 1.531 3.731 2.498 6.048 2.498zm42.828 72.067c2.191 0 4.493-.951 6.048-2.498 1.484-1.481 2.597-3.909 2.502-6.036-.101-2.208-.828-4.495-2.502-6.037-1.675-1.531-3.731-2.497-6.048-2.497-2.191 0-4.493.951-6.047 2.497-1.555 1.547-2.598 3.91-2.503 6.037.101 2.207.828 4.495 2.503 6.036 1.674 1.532 3.73 2.498 6.047 2.498zm-3.672-53.743c2.192 0 4.493-.951 6.048-2.497 1.554-1.547 2.597-3.91 2.502-6.037-.1-2.207-.827-4.495-2.502-6.036-1.675-1.532-3.731-2.498-6.048-2.498-2.191 0-4.493.951-6.047 2.498-1.555 1.546-2.598 3.909-2.502 6.036.1 2.207.827 4.495 2.502 6.037 1.675 1.531 3.731 2.497 6.047 2.497zm-69.75 36.64c2.191 0 4.493-.951 6.047-2.498 1.555-1.547 2.598-3.909 2.503-6.037-.101-2.207-.828-4.494-2.503-6.036-1.674-1.532-3.73-2.498-6.047-2.498-2.191 0-4.493.951-6.048 2.498-1.484 1.482-2.597 3.909-2.502 6.036.101 2.208.828 4.495 2.502 6.037 1.675 1.532 3.731 2.498 6.048 2.498zm12.236 47.636c2.192 0 4.493-.951 6.048-2.498 1.554-1.546 2.597-3.909 2.502-6.036-.1-2.208-.828-4.495-2.502-6.037-1.675-1.531-3.731-2.497-6.048-2.497-2.191 0-4.493.951-6.047 2.497-1.485 1.482-2.598 3.909-2.502 6.037.1 2.207.827 4.495 2.502 6.036 1.675 1.532 3.731 2.498 6.047 2.498zm121.254-2.323c2.191 0 4.493-.951 6.048-2.497 1.554-1.547 2.597-3.909 2.502-6.037-.101-2.207-.828-4.495-2.502-6.036-1.675-1.532-3.731-2.498-6.048-2.498-2.191 0-4.493.951-6.047 2.498-1.485 1.481-2.598 3.909-2.503 6.036.101 2.208.828 4.495 2.503 6.037 1.674 1.531 3.73 2.497 6.047 2.497zm-15.017-59.964c2.191 0 4.492-.951 6.047-2.498 1.554-1.546 2.597-3.909 2.502-6.036-.1-2.208-.827-4.495-2.502-6.037-1.675-1.531-3.731-2.498-6.047-2.498-2.192 0-4.493.952-6.048 2.498-1.484 1.482-2.597 3.909-2.502 6.037.1 2.207.827 4.495 2.502 6.036 1.675 1.532 3.731 2.498 6.048 2.498zm140.173 16.653c2.192 0 4.493-.951 6.048-2.498 1.554-1.547 2.597-3.909 2.502-6.036-.1-2.208-.827-4.495-2.502-6.037-1.675-1.532-3.731-2.498-6.048-2.498-2.191 0-4.493.951-6.047 2.498-1.484 1.482-2.598 3.909-2.502 6.037.1 2.207.827 4.494 2.502 6.036 1.675 1.532 3.731 2.498 6.047 2.498zm31.705-74.956c2.192 0 4.493-.951 6.048-2.498 1.484-1.481 2.597-3.909 2.502-6.036-.1-2.208-.827-4.495-2.502-6.037-1.675-1.531-3.731-2.497-6.048-2.497-2.191 0-4.493.951-6.047 2.497-1.484 1.482-2.597 3.91-2.502 6.037.1 2.207.827 4.495 2.502 6.036 1.675 1.532 3.731 2.498 6.047 2.498zm-60.072 26.654c2.192 0 4.493-.951 6.048-2.498 1.484-1.482 2.597-3.909 2.502-6.036-.1-2.208-.828-4.495-2.502-6.037-1.675-1.532-3.731-2.498-6.048-2.498-2.191 0-4.493.951-6.047 2.498-1.485 1.482-2.598 3.909-2.502 6.037.1 2.207.827 4.494 2.502 6.036 1.675 1.532 3.731 2.498 6.047 2.498zm-10.013 93.28c2.191 0 4.492-.951 6.047-2.497 1.554-1.547 2.597-3.91 2.502-6.037-.1-2.207-.827-4.495-2.502-6.036-1.675-1.532-3.731-2.498-6.047-2.498-2.192 0-4.493.951-6.048 2.498-1.484 1.481-2.597 3.909-2.502 6.036.1 2.207.827 4.495 2.502 6.037 1.675 1.531 3.731 2.497 6.048 2.497zm123.486 21.654c2.191 0 4.493-.951 6.047-2.498 1.555-1.547 2.598-3.909 2.502-6.037-.1-2.207-.827-4.494-2.502-6.036-1.675-1.532-3.73-2.498-6.047-2.498-2.191 0-4.493.951-6.048 2.498-1.484 1.481-2.597 3.909-2.502 6.036.1 2.208.828 4.495 2.502 6.037 1.675 1.531 3.731 2.498 6.048 2.498zm28.371-89.952c2.192 0 4.493-.951 6.048-2.498 1.554-1.547 2.597-3.909 2.502-6.037-.1-2.207-.827-4.494-2.502-6.036-1.675-1.532-3.731-2.498-6.048-2.498-2.191 0-4.493.951-6.047 2.498-1.555 1.547-2.598 3.909-2.502 6.036.1 2.208.827 4.495 2.502 6.037 1.675 1.532 3.731 2.498 6.047 2.498zm-71.758 51.64c2.192 0 4.493-.951 6.048-2.497 1.554-1.547 2.597-3.91 2.502-6.037-.1-2.207-.827-4.495-2.502-6.036-1.675-1.532-3.731-2.498-6.048-2.498-2.191 0-4.493.951-6.047 2.498-1.554 1.546-2.597 3.909-2.502 6.036.1 2.207.827 4.495 2.502 6.037 1.675 1.531 3.731 2.497 6.047 2.497zm13.35-54.969c2.191 0 4.493-.951 6.047-2.498 1.484-1.481 2.598-3.909 2.502-6.036-.1-2.207-.827-4.495-2.502-6.037-1.675-1.531-3.731-2.497-6.047-2.497-2.192 0-4.493.951-6.048 2.497-1.484 1.482-2.597 3.91-2.502 6.037.1 2.207.827 4.495 2.502 6.036 1.675 1.532 3.731 2.498 6.048 2.498zm55.068-93.28c2.192 0 4.493-.951 6.048-2.498 1.484-1.482 2.597-3.91 2.502-6.037-.1-2.207-.827-4.494-2.502-6.036-1.675-1.532-3.731-2.498-6.048-2.498-2.191 0-4.493.951-6.047 2.498-1.555 1.547-2.598 3.91-2.502 6.036.1 2.208.827 4.495 2.502 6.037 1.675 1.532 3.731 2.498 6.047 2.498zm-76.762 8.328c2.192 0 4.493-.95 6.048-2.497 1.554-1.547 2.597-3.91 2.502-6.037-.1-2.207-.827-4.495-2.502-6.036-1.675-1.532-3.731-2.498-6.048-2.498-2.191 0-4.493.951-6.047 2.498-1.484 1.481-2.598 3.909-2.502 6.036.1 2.208.827 4.495 2.502 6.037 1.675 1.531 3.731 2.497 6.047 2.497zm196.914 96.61c2.192 0 4.493-.951 6.048-2.498 1.484-1.482 2.597-3.909 2.502-6.037-.1-2.207-.827-4.494-2.502-6.036-1.675-1.532-3.731-2.498-6.048-2.498-2.191 0-4.493.951-6.047 2.498-1.484 1.482-2.598 3.909-2.502 6.036.1 2.208.827 4.495 2.502 6.037 1.675 1.532 3.731 2.498 6.047 2.498zm-36.71-63.298c2.191 0 4.492-.951 6.047-2.498 1.484-1.482 2.597-3.909 2.502-6.037-.1-2.207-.827-4.495-2.502-6.036-1.675-1.532-3.731-2.498-6.047-2.498-2.192 0-4.493.951-6.048 2.498-1.484 1.481-2.597 3.909-2.502 6.036.1 2.208.827 4.495 2.502 6.037 1.675 1.532 3.731 2.498 6.048 2.498zm-83.442 5c2.191 0 4.493-.951 6.048-2.498 1.554-1.547 2.597-3.909 2.502-6.036-.101-2.208-.828-4.495-2.502-6.037-1.675-1.532-3.731-2.498-6.048-2.498-2.191 0-4.493.951-6.047 2.498-1.485 1.482-2.598 3.909-2.503 6.037.101 2.207.828 4.494 2.503 6.036 1.674 1.532 3.73 2.498 6.047 2.498zm58.408 33.316c2.192 0 4.493-.951 6.048-2.498 1.484-1.482 2.597-3.909 2.502-6.036-.1-2.208-.827-4.495-2.502-6.037-1.675-1.532-3.731-2.498-6.048-2.498-2.191 0-4.493.951-6.047 2.498-1.484 1.482-2.598 3.909-2.502 6.037.1 2.207.827 4.494 2.502 6.036 1.675 1.532 3.731 2.498 6.047 2.498zm8.344 73.289c2.191 0 4.493-.951 6.047-2.498 1.485-1.482 2.598-3.909 2.503-6.036-.101-2.208-.828-4.495-2.503-6.037-1.674-1.532-3.73-2.498-6.047-2.498-2.191 0-4.493.951-6.047 2.498-1.485 1.482-2.598 3.909-2.503 6.037.101 2.207.828 4.494 2.503 6.036 1.674 1.532 3.73 2.498 6.047 2.498zm-55.068-3.329c2.191 0 4.493-.951 6.047-2.498 1.485-1.481 2.598-3.909 2.503-6.036-.101-2.207-.828-4.495-2.503-6.037-1.674-1.531-3.73-2.497-6.047-2.497-2.191 0-4.493.951-6.047 2.497-1.555 1.547-2.598 3.91-2.503 6.037.101 2.207.828 4.495 2.503 6.036 1.674 1.532 3.73 2.498 6.047 2.498zm125.156 21.653c2.191 0 4.493-.951 6.047-2.497 1.555-1.547 2.598-3.909 2.503-6.037-.101-2.207-.828-4.495-2.503-6.036-1.674-1.532-3.73-2.498-6.047-2.498-2.191 0-4.493.951-6.048 2.498-1.484 1.481-2.597 3.909-2.502 6.036.101 2.208.828 4.495 2.502 6.037 1.675 1.531 3.731 2.497 6.048 2.497zm36.712-46.64c2.19 0 4.49-.951 6.05-2.498 1.55-1.546 2.59-3.909 2.5-6.036-.1-2.207-.83-4.495-2.5-6.037-1.68-1.531-3.73-2.497-6.05-2.497-2.19 0-4.49.951-6.05 2.497-1.55 1.547-2.6 3.91-2.5 6.037.1 2.207.83 4.495 2.5 6.036 1.68 1.532 3.73 2.498 6.05 2.498zm-30.038-54.969c2.191 0 4.493-.951 6.047-2.498 1.555-1.546 2.598-3.909 2.502-6.036-.1-2.208-.827-4.495-2.502-6.037-1.675-1.531-3.731-2.497-6.047-2.497-2.192 0-4.493.951-6.048 2.497-1.484 1.482-2.597 3.909-2.502 6.037.1 2.207.827 4.495 2.502 6.036 1.675 1.532 3.731 2.498 6.048 2.498zm116.808 66.627c2.2 0 4.5-.951 6.05-2.498 1.56-1.547 2.6-3.909 2.5-6.036-.1-2.208-.82-4.495-2.5-6.037-1.67-1.532-3.73-2.498-6.05-2.498-2.19 0-4.49.951-6.04 2.498-1.56 1.547-2.6 3.909-2.51 6.037.11 2.207.83 4.494 2.51 6.036 1.67 1.532 3.73 2.498 6.04 2.498zm-50.06-48.302c2.19 0 4.49-.951 6.05-2.498 1.48-1.482 2.59-3.909 2.5-6.036-.1-2.208-.83-4.495-2.5-6.037-1.68-1.532-3.73-2.498-6.05-2.498-2.19 0-4.49.951-6.05 2.498-1.48 1.482-2.6 3.909-2.5 6.037.1 2.207.83 4.494 2.5 6.036 1.68 1.532 3.73 2.498 6.05 2.498zm-1.66 84.951c2.19 0 4.49-.951 6.04-2.497 1.56-1.547 2.6-3.91 2.51-6.037-.1-2.207-.83-4.495-2.51-6.036-1.67-1.532-3.73-2.498-6.04-2.498-2.2 0-4.5.951-6.05 2.498-1.49 1.481-2.6 3.909-2.5 6.036.1 2.207.82 4.495 2.5 6.037 1.67 1.531 3.73 2.497 6.05 2.497zm65.07 0c2.19 0 4.5-.951 6.05-2.497 1.48-1.482 2.6-3.91 2.5-6.037-.1-2.207-.83-4.495-2.5-6.036-1.68-1.532-3.73-2.498-6.05-2.498-2.19 0-4.49.951-6.05 2.498-1.55 1.546-2.59 3.909-2.5 6.036.1 2.207.83 4.495 2.5 6.037 1.68 1.531 3.74 2.497 6.05 2.497zm-572.379 3.329c2.192 0 4.493-.951 6.048-2.498 1.484-1.481 2.597-3.909 2.502-6.036-.1-2.208-.827-4.495-2.502-6.037-1.675-1.532-3.731-2.498-6.048-2.498-2.191 0-4.493.951-6.047 2.498-1.555 1.547-2.598 3.909-2.502 6.037.1 2.207.827 4.494 2.502 6.036 1.675 1.532 3.731 2.498 6.047 2.498zm5.006-136.587c2.191 0 4.493-.951 6.047-2.498 1.555-1.547 2.598-3.909 2.503-6.037-.101-2.207-.828-4.494-2.503-6.036-1.674-1.532-3.73-2.498-6.047-2.498-2.191 0-4.493.951-6.048 2.498-1.484 1.482-2.597 3.909-2.502 6.036.101 2.208.828 4.495 2.502 6.037 1.675 1.532 3.731 2.498 6.048 2.498z" fill="#fff"/><g opacity=".42"><path d="M493.81 103.353s40.256 112.786 156.526 119.643c116.271 6.858 539.614 16.163 539.614 16.163v29.086H404.377l37.659-158.916 51.774-5.976z" fill="#77AAE9"/><path d="M493.81 103.353s40.256 112.786 156.526 119.643c116.271 6.858 539.614 16.163 539.614 16.163v29.086H404.377l37.659-158.916 51.774-5.976z" fill="#6D8D2E"/><path d="M493.81 103.353s40.256 112.786 156.526 119.643c116.271 6.858 539.614 16.163 539.614 16.163v29.086H404.377l37.659-158.916 51.774-5.976z" fill="#096052"/></g></g><path d="M334.398 249.25c-1.84-5.596-7.07-9.385-12.962-9.721-14.016-.791-44.794-1.191-64.135 8.549-25.679 12.934-50.069 34.718-38.516 31.514 11.553-3.203 44.293-26.563 59.06-24.351 14.763 2.213 52.772 3.844 56.237-.641 1.083-1.401.973-3.343.316-5.355v.005z" fill="#ECC18F"/><path d="M334.017 252.638s-60.564-.1-66.386 4.936c-5.822 5.035-39.183 24.586-34.946 26.173 4.237 1.587 38.12-13.665 45.005-15.552 6.885-1.887 59.832 5.701 61.417.06 1.585-5.641-5.09-15.612-5.09-15.612v-.005z" fill="#ECC18F"/><path d="M277.85 255.241s29.6-3.684 39.609-2.432c0 0-20.153-6.362-39.609 2.432z" fill="#E0A870"/><path d="M326.385 238.493l115.649-51.751-8.249 70.757s-87.216 15.751-104.105 14.976c-16.889-.776-3.295-33.982-3.295-33.982z" fill="#9E5C45"/><mask id="mask4_136_1255" style="mask-type:luminance" maskUnits="userSpaceOnUse" x="321" y="186" width="122" height="87"><path d="M326.385 238.493l115.649-51.751-8.249 70.757s-87.216 15.751-104.105 14.976c-16.889-.776-3.295-33.982-3.295-33.982z" fill="#fff"/></mask><g mask="url(#mask4_136_1255)"><path d="M311.091 257.944s93.364-7.153 147.465-41.83v52.136l-150.122 11.663 2.657-21.964v-.005z" fill="#8A4F3D"/></g><path d="M379.499 110.15s-53.114-14.175-84.93-40.564C262.611 43.088 372.759-4.589 408.246.356c35.488 4.946 52.522 110.405 12.231 176.301l-22.094-98.066s2.713 23.545-18.884 31.559z" fill="#BCDEF9"/><path d="M379.499 110.15s-53.114-14.175-84.93-40.564C262.611 43.088 372.759-4.589 408.246.356c35.488 4.946 52.522 110.405 12.231 176.301l-22.094-98.066s2.713 23.545-18.884 31.559z" fill="#8BB637"/><path d="M379.499 110.15s-53.114-14.175-84.93-40.564C262.611 43.088 372.759-4.589 408.246.356c35.488 4.946 52.522 110.405 12.231 176.301l-22.094-98.066s2.713 23.545-18.884 31.559z" fill="#0C8774"/><mask id="mask5_136_1255" style="mask-type:luminance" maskUnits="userSpaceOnUse" x="288" y="0" width="156" height="177"><path d="M379.499 110.15s-53.114-14.175-84.93-40.564C262.611 43.088 372.759-4.589 408.246.356c35.488 4.946 52.522 110.405 12.231 176.301l-22.094-98.066s2.713 23.545-18.884 31.559z" fill="#fff"/></mask><g mask="url(#mask5_136_1255)"><g opacity=".42"><path d="M346.955 98.958s48.38-28.596 51.428-47.632c3.049-19.035 27.149 82.96 20.986 120.415l-20.986-63.543-22.745 8.128-28.683-17.368z" fill="#77AAE9"/><path d="M346.955 98.958s48.38-28.596 51.428-47.632c3.049-19.035 27.149 82.96 20.986 120.415l-20.986-63.543-22.745 8.128-28.683-17.368z" fill="#0B7363"/></g><path opacity=".54" d="M300.742 39.8s60.665 45.043 94.984 64.368l-20.093 12.159s-84.679-30.924-92.572-50.53C275.168 46.191 300.742 39.8 300.742 39.8z" fill="#fff"/></g><path d="M419.684 197.764c7.206 0 13.048-5.831 13.048-13.024 0-7.193-5.842-13.024-13.048-13.024s-13.047 5.831-13.047 13.024c0 7.193 5.841 13.024 13.047 13.024z" fill="#fff"/></svg>