<svg width="559" height="211" fill="none" xmlns="http://www.w3.org/2000/svg"><path d="M103.192 168.948H0v-46.502L103.192 0h49.37v125.082h25.586v43.866h-25.586v38.033h-49.37v-38.033zm0-43.866V61.029l-54.528 64.053h54.528z" fill="#77AAE9"/><path d="M103.192 168.948H0v-46.502L103.192 0h49.37v125.082h25.586v43.866h-25.586v38.033h-49.37v-38.033zm0-43.866V61.029l-54.528 64.053h54.528z" fill="#8BB637"/><path d="M103.192 168.948H0v-46.502L103.192 0h49.37v125.082h25.586v43.866h-25.586v38.033h-49.37v-38.033zm0-43.866V61.029l-54.528 64.053h54.528z" fill="#0C8774"/><path d="M195.813 104.395c0-38.687 6.98-65.759 20.929-81.215C230.691 7.723 251.948 0 280.512 0c13.724 0 24.982 1.686 33.793 5.067 8.812 3.381 15.996 7.774 21.554 13.189 5.567 5.414 9.947 11.104 13.14 17.08 3.204 5.966 5.772 12.933 7.717 20.892 3.797 15.18 5.7 31.004 5.7 47.482 0 36.93-6.263 63.951-18.779 81.072-12.517 17.122-34.07 25.683-64.671 25.683-17.152 0-31.009-2.728-41.581-8.193-10.572-5.455-19.241-13.465-26.006-24.017-4.912-7.499-8.74-17.745-11.472-30.75-2.733-13.004-4.104-27.368-4.104-43.1l.01-.01zm56.186.143c0 25.917 2.293 43.611 6.888 53.101 4.585 9.491 11.237 14.231 19.956 14.231 5.752 0 10.726-2.013 14.953-6.038 4.216-4.025 7.327-10.389 9.313-19.093 1.996-8.694 2.988-22.26 2.988-40.679 0-27.02-2.292-45.184-6.887-54.49-4.585-9.297-11.473-13.956-20.653-13.956-9.18 0-16.129 4.74-20.305 14.23-4.175 9.491-6.263 27.052-6.263 52.684l.01.01z" fill="#77AAE9"/><path d="M195.813 104.395c0-38.687 6.98-65.759 20.929-81.215C230.691 7.723 251.948 0 280.512 0c13.724 0 24.982 1.686 33.793 5.067 8.812 3.381 15.996 7.774 21.554 13.189 5.567 5.414 9.947 11.104 13.14 17.08 3.204 5.966 5.772 12.933 7.717 20.892 3.797 15.18 5.7 31.004 5.7 47.482 0 36.93-6.263 63.951-18.779 81.072-12.517 17.122-34.07 25.683-64.671 25.683-17.152 0-31.009-2.728-41.581-8.193-10.572-5.455-19.241-13.465-26.006-24.017-4.912-7.499-8.74-17.745-11.472-30.75-2.733-13.004-4.104-27.368-4.104-43.1l.01-.01zm56.186.143c0 25.917 2.293 43.611 6.888 53.101 4.585 9.491 11.237 14.231 19.956 14.231 5.752 0 10.726-2.013 14.953-6.038 4.216-4.025 7.327-10.389 9.313-19.093 1.996-8.694 2.988-22.26 2.988-40.679 0-27.02-2.292-45.184-6.887-54.49-4.585-9.297-11.473-13.956-20.653-13.956-9.18 0-16.129 4.74-20.305 14.23-4.175 9.491-6.263 27.052-6.263 52.684l.01.01z" fill="#8BB637"/><path d="M195.813 104.395c0-38.687 6.98-65.759 20.929-81.215C230.691 7.723 251.948 0 280.512 0c13.724 0 24.982 1.686 33.793 5.067 8.812 3.381 15.996 7.774 21.554 13.189 5.567 5.414 9.947 11.104 13.14 17.08 3.204 5.966 5.772 12.933 7.717 20.892 3.797 15.18 5.7 31.004 5.7 47.482 0 36.93-6.263 63.951-18.779 81.072-12.517 17.122-34.07 25.683-64.671 25.683-17.152 0-31.009-2.728-41.581-8.193-10.572-5.455-19.241-13.465-26.006-24.017-4.912-7.499-8.74-17.745-11.472-30.75-2.733-13.004-4.104-27.368-4.104-43.1l.01-.01zm56.186.143c0 25.917 2.293 43.611 6.888 53.101 4.585 9.491 11.237 14.231 19.956 14.231 5.752 0 10.726-2.013 14.953-6.038 4.216-4.025 7.327-10.389 9.313-19.093 1.996-8.694 2.988-22.26 2.988-40.679 0-27.02-2.292-45.184-6.887-54.49-4.585-9.297-11.473-13.956-20.653-13.956-9.18 0-16.129 4.74-20.305 14.23-4.175 9.491-6.263 27.052-6.263 52.684l.01.01z" fill="#0C8774"/><path d="M483.151 168.948H379.959v-46.502L483.151 0h49.37v125.082h25.586v43.866h-25.586v38.033h-49.37v-38.033zm0-43.866V61.029l-54.528 64.053h54.528z" fill="#77AAE9"/><path d="M483.151 168.948H379.959v-46.502L483.151 0h49.37v125.082h25.586v43.866h-25.586v38.033h-49.37v-38.033zm0-43.866V61.029l-54.528 64.053h54.528z" fill="#8BB637"/><path d="M483.151 168.948H379.959v-46.502L483.151 0h49.37v125.082h25.586v43.866h-25.586v38.033h-49.37v-38.033zm0-43.866V61.029l-54.528 64.053h54.528z" fill="#0C8774"/></svg>