<svg width="60" height="60" fill="none" xmlns="http://www.w3.org/2000/svg"><path d="M48 8.935a3.03 3.03 0 012.121.86A2.9 2.9 0 0151 11.87v23.479c0 .778-.316 1.524-.879 2.075-.562.55-1.325.86-2.121.86h-7.5a6.11 6.11 0 00-2.683.619c-.833.407-1.558 1-2.117 1.728L30 48.065l-5.7-7.434a5.971 5.971 0 00-2.117-1.728 6.11 6.11 0 00-2.683-.62H12a3.03 3.03 0 01-2.121-.86A2.903 2.903 0 019 35.349V11.87c0-.779.316-1.525.879-2.076A3.034 3.034 0 0112 8.934h36zM12 6a6.068 6.068 0 00-4.243 1.72A5.806 5.806 0 006 11.87v23.479c0 1.556.632 3.05 1.757 4.15A6.069 6.069 0 0012 41.219h7.5c.466 0 .925.105 1.342.309.416.204.779.5 1.058.864l5.7 7.434c.28.365.642.66 1.058.864a3.055 3.055 0 002.684 0c.416-.204.779-.5 1.058-.864l5.7-7.434c.28-.364.642-.66 1.058-.864.417-.204.876-.31 1.342-.31H48a6.068 6.068 0 004.243-1.719A5.806 5.806 0 0054 35.349v-23.48a5.807 5.807 0 00-1.757-4.15A6.068 6.068 0 0048 6H12z" fill="#000"/><path d="M48 8.935a3.03 3.03 0 012.121.86A2.9 2.9 0 0151 11.87v23.479c0 .778-.316 1.524-.879 2.075-.562.55-1.325.86-2.121.86h-7.5a6.11 6.11 0 00-2.683.619c-.833.407-1.558 1-2.117 1.728L30 48.065l-5.7-7.434a5.971 5.971 0 00-2.117-1.728 6.11 6.11 0 00-2.683-.62H12a3.03 3.03 0 01-2.121-.86A2.903 2.903 0 019 35.349V11.87c0-.779.316-1.525.879-2.076A3.034 3.034 0 0112 8.934h36zM12 6a6.068 6.068 0 00-4.243 1.72A5.806 5.806 0 006 11.87v23.479c0 1.556.632 3.05 1.757 4.15A6.069 6.069 0 0012 41.219h7.5c.466 0 .925.105 1.342.309.416.204.779.5 1.058.864l5.7 7.434c.28.365.642.66 1.058.864a3.055 3.055 0 002.684 0c.416-.204.779-.5 1.058-.864l5.7-7.434c.28-.364.642-.66 1.058-.864.417-.204.876-.31 1.342-.31H48a6.068 6.068 0 004.243-1.719A5.806 5.806 0 0054 35.349v-23.48a5.807 5.807 0 00-1.757-4.15A6.068 6.068 0 0048 6H12z" fill="#fff"/><path d="M48 8.935a3.03 3.03 0 012.121.86A2.9 2.9 0 0151 11.87v23.479c0 .778-.316 1.524-.879 2.075-.562.55-1.325.86-2.121.86h-7.5a6.11 6.11 0 00-2.683.619c-.833.407-1.558 1-2.117 1.728L30 48.065l-5.7-7.434a5.971 5.971 0 00-2.117-1.728 6.11 6.11 0 00-2.683-.62H12a3.03 3.03 0 01-2.121-.86A2.903 2.903 0 019 35.349V11.87c0-.779.316-1.525.879-2.076A3.034 3.034 0 0112 8.934h36zM12 6a6.068 6.068 0 00-4.243 1.72A5.806 5.806 0 006 11.87v23.479c0 1.556.632 3.05 1.757 4.15A6.069 6.069 0 0012 41.219h7.5c.466 0 .925.105 1.342.309.416.204.779.5 1.058.864l5.7 7.434c.28.365.642.66 1.058.864a3.055 3.055 0 002.684 0c.416-.204.779-.5 1.058-.864l5.7-7.434c.28-.364.642-.66 1.058-.864.417-.204.876-.31 1.342-.31H48a6.068 6.068 0 004.243-1.719A5.806 5.806 0 0054 35.349v-23.48a5.807 5.807 0 00-1.757-4.15A6.068 6.068 0 0048 6H12z" fill="#0C8774"/><path d="M21 24a3 3 0 11-6 0 3 3 0 016 0zm12 0a3 3 0 11-6 0 3 3 0 016 0zm12 0a3 3 0 11-6 0 3 3 0 016 0z" fill="#000"/><path d="M21 24a3 3 0 11-6 0 3 3 0 016 0zm12 0a3 3 0 11-6 0 3 3 0 016 0zm12 0a3 3 0 11-6 0 3 3 0 016 0z" fill="#fff"/><path d="M21 24a3 3 0 11-6 0 3 3 0 016 0zm12 0a3 3 0 11-6 0 3 3 0 016 0zm12 0a3 3 0 11-6 0 3 3 0 016 0z" fill="#0C8774"/></svg>