<svg width="60" height="60" fill="none" xmlns="http://www.w3.org/2000/svg"><g clip-path="url(#clip0_79_2806)"><path d="M16.25 42.5h-5a1.25 1.25 0 010-2.5h5a1.25 1.25 0 010 2.5z" fill="#fff"/><path d="M16.25 42.5h-5a1.25 1.25 0 010-2.5h5a1.25 1.25 0 010 2.5z" fill="#0C8774"/><path d="M56.875 42.5H53.75a1.25 1.25 0 010-2.5h2.088l1.685-8.98c-.023-4.595-3.948-8.52-8.773-8.52h-8.207L36.565 40h7.185a1.25 1.25 0 010 2.5H35a1.25 1.25 0 01-1.22-1.525l4.545-20c.13-.573.635-.975 1.22-.975h9.205C54.953 20 60 25.047 60 31.25l-1.897 10.23a1.246 1.246 0 01-1.228 1.02z" fill="#fff"/><path d="M56.875 42.5H53.75a1.25 1.25 0 010-2.5h2.088l1.685-8.98c-.023-4.595-3.948-8.52-8.773-8.52h-8.207L36.565 40h7.185a1.25 1.25 0 010 2.5H35a1.25 1.25 0 01-1.22-1.525l4.545-20c.13-.573.635-.975 1.22-.975h9.205C54.953 20 60 25.047 60 31.25l-1.897 10.23a1.246 1.246 0 01-1.228 1.02z" fill="#0C8774"/><path d="M48.75 47.5a6.257 6.257 0 01-6.25-6.25A6.257 6.257 0 0148.75 35 6.257 6.257 0 0155 41.25a6.257 6.257 0 01-6.25 6.25zm0-10A3.755 3.755 0 0045 41.25 3.755 3.755 0 0048.75 45a3.755 3.755 0 003.75-3.75 3.755 3.755 0 00-3.75-3.75z" fill="#fff"/><path d="M48.75 47.5a6.257 6.257 0 01-6.25-6.25A6.257 6.257 0 0148.75 35 6.257 6.257 0 0155 41.25a6.257 6.257 0 01-6.25 6.25zm0-10A3.755 3.755 0 0045 41.25 3.755 3.755 0 0048.75 45a3.755 3.755 0 003.75-3.75 3.755 3.755 0 00-3.75-3.75z" fill="#0C8774"/><path d="M21.25 47.5A6.257 6.257 0 0115 41.25 6.257 6.257 0 0121.25 35a6.257 6.257 0 016.25 6.25 6.257 6.257 0 01-6.25 6.25zm0-10a3.755 3.755 0 00-3.75 3.75A3.755 3.755 0 0021.25 45 3.755 3.755 0 0025 41.25a3.755 3.755 0 00-3.75-3.75z" fill="#fff"/><path d="M21.25 47.5A6.257 6.257 0 0115 41.25 6.257 6.257 0 0121.25 35a6.257 6.257 0 016.25 6.25 6.257 6.257 0 01-6.25 6.25zm0-10a3.755 3.755 0 00-3.75 3.75A3.755 3.755 0 0021.25 45 3.755 3.755 0 0025 41.25a3.755 3.755 0 00-3.75-3.75z" fill="#0C8774"/><path d="M16.25 20h-10a1.25 1.25 0 010-2.5h10a1.25 1.25 0 010 2.5z" fill="#fff"/><path d="M16.25 20h-10a1.25 1.25 0 010-2.5h10a1.25 1.25 0 010 2.5z" fill="#0C8774"/><path d="M16.25 27.5H3.75a1.25 1.25 0 010-2.5h12.5a1.25 1.25 0 010 2.5z" fill="#fff"/><path d="M16.25 27.5H3.75a1.25 1.25 0 010-2.5h12.5a1.25 1.25 0 010 2.5z" fill="#0C8774"/><path d="M16.25 35h-15a1.25 1.25 0 010-2.5h15a1.25 1.25 0 010 2.5z" fill="#fff"/><path d="M16.25 35h-15a1.25 1.25 0 010-2.5h15a1.25 1.25 0 010 2.5z" fill="#0C8774"/><path d="M35 42.5h-8.75a1.25 1.25 0 010-2.5h7.752l5.68-25H11.25a1.25 1.25 0 010-2.5h30a1.25 1.25 0 011.22 1.525l-6.25 27.5c-.13.572-.637.975-1.22.975z" fill="#fff"/><path d="M35 42.5h-8.75a1.25 1.25 0 010-2.5h7.752l5.68-25H11.25a1.25 1.25 0 010-2.5h30a1.25 1.25 0 011.22 1.525l-6.25 27.5c-.13.572-.637.975-1.22.975z" fill="#0C8774"/></g><defs><clipPath id="clip0_79_2806"><path fill="#fff" d="M0 0h60v60H0z"/></clipPath></defs></svg>