<svg width="60" height="60" fill="none" xmlns="http://www.w3.org/2000/svg"><path d="M22.014 10.77a184.295 184.295 0 00-8.511 2.568 1.443 1.443 0 00-.984 1.17c-1.662 12.471 2.178 21.57 6.759 27.564a32.176 32.176 0 006.861 6.699c1.038.732 1.956 1.26 2.679 1.599.36.171.654.285.879.354.098.035.2.06.303.075.102-.017.202-.042.3-.075a6.52 6.52 0 00.882-.354c.72-.339 1.641-.87 2.679-1.599a32.18 32.18 0 006.861-6.699c4.581-5.991 8.421-15.093 6.759-27.564a1.44 1.44 0 00-.984-1.17c-1.953-.639-5.25-1.68-8.511-2.565-3.33-.903-6.393-1.572-7.986-1.572-1.59 0-4.656.666-7.986 1.569zm-.798-3.09C24.471 6.795 27.93 6 30 6c2.07 0 5.529.795 8.784 1.68 3.33.9 6.687 1.965 8.661 2.61a4.62 4.62 0 013.132 3.786c1.788 13.431-2.361 23.385-7.395 29.97a35.325 35.325 0 01-7.551 7.359 21.478 21.478 0 01-3.144 1.875c-.84.396-1.743.72-2.487.72s-1.644-.324-2.487-.72a21.469 21.469 0 01-3.144-1.875 35.332 35.332 0 01-7.551-7.359c-5.034-6.585-9.183-16.539-7.395-29.97a4.62 4.62 0 013.132-3.786c2.866-.94 5.753-1.81 8.661-2.61z" fill="#fff"/><path d="M22.014 10.77a184.295 184.295 0 00-8.511 2.568 1.443 1.443 0 00-.984 1.17c-1.662 12.471 2.178 21.57 6.759 27.564a32.176 32.176 0 006.861 6.699c1.038.732 1.956 1.26 2.679 1.599.36.171.654.285.879.354.098.035.2.06.303.075.102-.017.202-.042.3-.075a6.52 6.52 0 00.882-.354c.72-.339 1.641-.87 2.679-1.599a32.18 32.18 0 006.861-6.699c4.581-5.991 8.421-15.093 6.759-27.564a1.44 1.44 0 00-.984-1.17c-1.953-.639-5.25-1.68-8.511-2.565-3.33-.903-6.393-1.572-7.986-1.572-1.59 0-4.656.666-7.986 1.569zm-.798-3.09C24.471 6.795 27.93 6 30 6c2.07 0 5.529.795 8.784 1.68 3.33.9 6.687 1.965 8.661 2.61a4.62 4.62 0 013.132 3.786c1.788 13.431-2.361 23.385-7.395 29.97a35.325 35.325 0 01-7.551 7.359 21.478 21.478 0 01-3.144 1.875c-.84.396-1.743.72-2.487.72s-1.644-.324-2.487-.72a21.469 21.469 0 01-3.144-1.875 35.332 35.332 0 01-7.551-7.359c-5.034-6.585-9.183-16.539-7.395-29.97a4.62 4.62 0 013.132-3.786c2.866-.94 5.753-1.81 8.661-2.61z" fill="#0C8774"/></svg>