<svg width="60" height="60" fill="none" xmlns="http://www.w3.org/2000/svg"><path d="M50.995 15.059a3.154 3.154 0 00-2.245-.942h-37.5c-.842 0-1.65.339-2.245.942a3.238 3.238 0 00-.93 2.274v25.334c0 .853.334 1.67.93 2.274a3.154 3.154 0 002.245.942h37.5c.842 0 1.65-.339 2.245-.942.596-.603.93-1.421.93-2.274V17.333c0-.853-.334-1.67-.93-2.274zM6.866 12.89a6.159 6.159 0 014.384-1.84h37.5a6.16 6.16 0 014.384 1.84 6.326 6.326 0 011.816 4.443v25.334a6.326 6.326 0 01-1.816 4.443 6.158 6.158 0 01-4.384 1.84h-37.5a6.159 6.159 0 01-4.384-1.84 6.326 6.326 0 01-1.816-4.443V17.333c0-1.666.653-3.265 1.816-4.443z" fill="#fff"/><path d="M50.995 15.059a3.154 3.154 0 00-2.245-.942h-37.5c-.842 0-1.65.339-2.245.942a3.238 3.238 0 00-.93 2.274v25.334c0 .853.334 1.67.93 2.274a3.154 3.154 0 002.245.942h37.5c.842 0 1.65-.339 2.245-.942.596-.603.93-1.421.93-2.274V17.333c0-.853-.334-1.67-.93-2.274zM6.866 12.89a6.159 6.159 0 014.384-1.84h37.5a6.16 6.16 0 014.384 1.84 6.326 6.326 0 011.816 4.443v25.334a6.326 6.326 0 01-1.816 4.443 6.158 6.158 0 01-4.384 1.84h-37.5a6.159 6.159 0 01-4.384-1.84 6.326 6.326 0 01-1.816-4.443V17.333c0-1.666.653-3.265 1.816-4.443z" fill="#0C8774"/><path d="M50.995 15.059a3.154 3.154 0 00-2.245-.942h-37.5c-.842 0-1.65.339-2.245.942a3.238 3.238 0 00-.93 2.274v25.334c0 .853.334 1.67.93 2.274a3.154 3.154 0 002.245.942h37.5c.842 0 1.65-.339 2.245-.942.596-.603.93-1.421.93-2.274V17.333c0-.853-.334-1.67-.93-2.274zM6.866 12.89a6.159 6.159 0 014.384-1.84h37.5a6.16 6.16 0 014.384 1.84 6.326 6.326 0 011.816 4.443v25.334a6.326 6.326 0 01-1.816 4.443 6.158 6.158 0 01-4.384 1.84h-37.5a6.159 6.159 0 01-4.384-1.84 6.326 6.326 0 01-1.816-4.443V17.333c0-1.666.653-3.265 1.816-4.443z" stroke="#fff" stroke-width=".1"/><path d="M11.05 21.583c0-.406.162-.796.451-1.084a1.55 1.55 0 011.09-.449h6.364c.408 0 .8.162 1.09.45.288.287.45.677.45 1.083v3.167c0 .407-.162.797-.45 1.084-.29.288-.682.45-1.09.45H12.59c-.409 0-.8-.162-1.09-.45a1.53 1.53 0 01-.451-1.084v-3.167zm0 9.5c0-.406.162-.796.451-1.084a1.55 1.55 0 011.09-.449H28.5c.409 0 .8.162 1.09.45a1.53 1.53 0 010 2.167c-.29.288-.681.45-1.09.45H12.59c-.408 0-.8-.162-1.089-.45a1.53 1.53 0 01-.451-1.084zm0 6.334c0-.407.162-.797.451-1.084.29-.288.681-.45 1.09-.45h3.182c.409 0 .8.162 1.09.45a1.53 1.53 0 010 2.168 1.55 1.55 0 01-1.09.449H12.59c-.409 0-.8-.162-1.09-.45a1.53 1.53 0 01-.451-1.083zm9.546 0c0-.407.162-.797.45-1.084.29-.288.682-.45 1.09-.45h3.182c.409 0 .8.162 1.09.45a1.53 1.53 0 010 2.168 1.55 1.55 0 01-1.09.449h-3.182c-.408 0-.8-.162-1.09-.45a1.53 1.53 0 01-.45-1.083zm9.545 0c0-.407.162-.797.451-1.084.29-.288.681-.45 1.09-.45h3.182c.408 0 .8.162 1.09.45a1.53 1.53 0 010 2.168c-.29.287-.682.449-1.09.449h-3.182c-.409 0-.8-.162-1.09-.45a1.53 1.53 0 01-.451-1.083zm9.545 0a1.542 1.542 0 011.542-1.534h3.181c.409 0 .8.162 1.09.45a1.53 1.53 0 010 2.168 1.55 1.55 0 01-1.09.449h-3.182c-.408 0-.8-.162-1.09-.45a1.53 1.53 0 01-.45-1.083z" fill="#fff"/><path d="M11.05 21.583c0-.406.162-.796.451-1.084a1.55 1.55 0 011.09-.449h6.364c.408 0 .8.162 1.09.45.288.287.45.677.45 1.083v3.167c0 .407-.162.797-.45 1.084-.29.288-.682.45-1.09.45H12.59c-.409 0-.8-.162-1.09-.45a1.53 1.53 0 01-.451-1.084v-3.167zm0 9.5c0-.406.162-.796.451-1.084a1.55 1.55 0 011.09-.449H28.5c.409 0 .8.162 1.09.45a1.53 1.53 0 010 2.167c-.29.288-.681.45-1.09.45H12.59c-.408 0-.8-.162-1.089-.45a1.53 1.53 0 01-.451-1.084zm0 6.334c0-.407.162-.797.451-1.084.29-.288.681-.45 1.09-.45h3.182c.409 0 .8.162 1.09.45a1.53 1.53 0 010 2.168 1.55 1.55 0 01-1.09.449H12.59c-.409 0-.8-.162-1.09-.45a1.53 1.53 0 01-.451-1.083zm9.546 0c0-.407.162-.797.45-1.084.29-.288.682-.45 1.09-.45h3.182c.409 0 .8.162 1.09.45a1.53 1.53 0 010 2.168 1.55 1.55 0 01-1.09.449h-3.182c-.408 0-.8-.162-1.09-.45a1.53 1.53 0 01-.45-1.083zm9.545 0c0-.407.162-.797.451-1.084.29-.288.681-.45 1.09-.45h3.182c.408 0 .8.162 1.09.45a1.53 1.53 0 010 2.168c-.29.287-.682.449-1.09.449h-3.182c-.409 0-.8-.162-1.09-.45a1.53 1.53 0 01-.451-1.083zm9.545 0a1.542 1.542 0 011.542-1.534h3.181c.409 0 .8.162 1.09.45a1.53 1.53 0 010 2.168 1.55 1.55 0 01-1.09.449h-3.182c-.408 0-.8-.162-1.09-.45a1.53 1.53 0 01-.45-1.083z" fill="#0C8774"/><path d="M11.05 21.583c0-.406.162-.796.451-1.084a1.55 1.55 0 011.09-.449h6.364c.408 0 .8.162 1.09.45.288.287.45.677.45 1.083v3.167c0 .407-.162.797-.45 1.084-.29.288-.682.45-1.09.45H12.59c-.409 0-.8-.162-1.09-.45a1.53 1.53 0 01-.451-1.084v-3.167zm0 9.5c0-.406.162-.796.451-1.084a1.55 1.55 0 011.09-.449H28.5c.409 0 .8.162 1.09.45a1.53 1.53 0 010 2.167c-.29.288-.681.45-1.09.45H12.59c-.408 0-.8-.162-1.089-.45a1.53 1.53 0 01-.451-1.084zm0 6.334c0-.407.162-.797.451-1.084.29-.288.681-.45 1.09-.45h3.182c.409 0 .8.162 1.09.45a1.53 1.53 0 010 2.168 1.55 1.55 0 01-1.09.449H12.59c-.409 0-.8-.162-1.09-.45a1.53 1.53 0 01-.451-1.083zm9.546 0c0-.407.162-.797.45-1.084.29-.288.682-.45 1.09-.45h3.182c.409 0 .8.162 1.09.45a1.53 1.53 0 010 2.168 1.55 1.55 0 01-1.09.449h-3.182c-.408 0-.8-.162-1.09-.45a1.53 1.53 0 01-.45-1.083zm9.545 0c0-.407.162-.797.451-1.084.29-.288.681-.45 1.09-.45h3.182c.408 0 .8.162 1.09.45a1.53 1.53 0 010 2.168c-.29.287-.682.449-1.09.449h-3.182c-.409 0-.8-.162-1.09-.45a1.53 1.53 0 01-.451-1.083zm9.545 0a1.542 1.542 0 011.542-1.534h3.181c.409 0 .8.162 1.09.45a1.53 1.53 0 010 2.168 1.55 1.55 0 01-1.09.449h-3.182c-.408 0-.8-.162-1.09-.45a1.53 1.53 0 01-.45-1.083z" stroke="#fff" stroke-width=".1"/></svg>