<svg width="50" height="50" fill="none" xmlns="http://www.w3.org/2000/svg"><g clip-path="url(#clip0_94_3088)" fill-rule="evenodd" clip-rule="evenodd"><path d="M10.938 18.75a1.563 1.563 0 00-1.563 1.563v25a1.563 1.563 0 001.563 1.562h28.124a1.563 1.563 0 001.563-1.563v-25a1.563 1.563 0 00-1.563-1.562h-6.25a1.563 1.563 0 010-3.125h6.25a4.688 4.688 0 014.688 4.688v25A4.688 4.688 0 0139.062 50H10.939a4.688 4.688 0 01-4.688-4.688v-25a4.688 4.688 0 014.688-4.687h6.25a1.563 1.563 0 010 3.125h-6.25z" fill="#000"/><path d="M10.938 18.75a1.563 1.563 0 00-1.563 1.563v25a1.563 1.563 0 001.563 1.562h28.124a1.563 1.563 0 001.563-1.563v-25a1.563 1.563 0 00-1.563-1.562h-6.25a1.563 1.563 0 010-3.125h6.25a4.688 4.688 0 014.688 4.688v25A4.688 4.688 0 0139.062 50H10.939a4.688 4.688 0 01-4.688-4.688v-25a4.688 4.688 0 014.688-4.687h6.25a1.563 1.563 0 010 3.125h-6.25z" fill="#B9C3D5"/><path d="M23.892.456a1.563 1.563 0 012.212 0l9.375 9.375a1.565 1.565 0 01-2.212 2.213l-6.706-6.71v27.479a1.563 1.563 0 01-3.125 0V5.334l-6.707 6.71a1.565 1.565 0 01-2.212-2.213L23.892.456z" fill="#000"/><path d="M23.892.456a1.563 1.563 0 012.212 0l9.375 9.375a1.565 1.565 0 01-2.212 2.213l-6.706-6.71v27.479a1.563 1.563 0 01-3.125 0V5.334l-6.707 6.71a1.565 1.565 0 01-2.212-2.213L23.892.456z" fill="#B9C3D5"/></g><defs><clipPath id="clip0_94_3088"><path fill="#fff" d="M0 0h50v50H0z"/></clipPath></defs></svg>