<svg width="50" height="50" fill="none" xmlns="http://www.w3.org/2000/svg"><path d="M0 12.5a6.25 6.25 0 016.25-6.25h37.5A6.25 6.25 0 0150 12.5v25a6.25 6.25 0 01-6.25 6.25H6.25A6.25 6.25 0 010 37.5v-25zm6.25-3.125A3.125 3.125 0 003.125 12.5v3.125h43.75V12.5a3.125 3.125 0 00-3.125-3.125H6.25zm40.625 12.5H3.125V37.5a3.125 3.125 0 003.125 3.125h37.5a3.125 3.125 0 003.125-3.125V21.875z" fill="#000"/><path d="M0 12.5a6.25 6.25 0 016.25-6.25h37.5A6.25 6.25 0 0150 12.5v25a6.25 6.25 0 01-6.25 6.25H6.25A6.25 6.25 0 010 37.5v-25zm6.25-3.125A3.125 3.125 0 003.125 12.5v3.125h43.75V12.5a3.125 3.125 0 00-3.125-3.125H6.25zm40.625 12.5H3.125V37.5a3.125 3.125 0 003.125 3.125h37.5a3.125 3.125 0 003.125-3.125V21.875z" fill="#8BB637"/><path d="M0 12.5a6.25 6.25 0 016.25-6.25h37.5A6.25 6.25 0 0150 12.5v25a6.25 6.25 0 01-6.25 6.25H6.25A6.25 6.25 0 010 37.5v-25zm6.25-3.125A3.125 3.125 0 003.125 12.5v3.125h43.75V12.5a3.125 3.125 0 00-3.125-3.125H6.25zm40.625 12.5H3.125V37.5a3.125 3.125 0 003.125 3.125h37.5a3.125 3.125 0 003.125-3.125V21.875z" fill="#B9C3D5"/><path d="M6.25 31.25a3.125 3.125 0 013.125-3.125H12.5a3.125 3.125 0 013.125 3.125v3.125A3.125 3.125 0 0112.5 37.5H9.375a3.125 3.125 0 01-3.125-3.125V31.25z" fill="#000"/><path d="M6.25 31.25a3.125 3.125 0 013.125-3.125H12.5a3.125 3.125 0 013.125 3.125v3.125A3.125 3.125 0 0112.5 37.5H9.375a3.125 3.125 0 01-3.125-3.125V31.25z" fill="#8BB637"/><path d="M6.25 31.25a3.125 3.125 0 013.125-3.125H12.5a3.125 3.125 0 013.125 3.125v3.125A3.125 3.125 0 0112.5 37.5H9.375a3.125 3.125 0 01-3.125-3.125V31.25z" fill="#B9C3D5"/></svg>