<svg width="29" height="29" fill="none" xmlns="http://www.w3.org/2000/svg"><path d="M20.202 22.952a3.25 3.25 0 114.596 4.596 3.25 3.25 0 01-4.596-4.596zm-13.125 0a3.25 3.25 0 114.596 4.596 3.25 3.25 0 01-4.596-4.596zM9.375 21H7.5a.437.437 0 01-.43-.357h0L4.26 5.67l-.003-.014-.003-.015-.75-3.013-.094-.379H.937a.437.437 0 110-.875H3.75s0 0 0 0 0 0 0 0a.438.438 0 01.424.332h0l.76 3.04.094.378h22.16a.438.438 0 01.428.523l-1.875 9.375s0 0 0 0a.438.438 0 01-.407.35s0 0 0 0l-17.62.886-.571.029.106.562.538 2.867.076.408h16.512a.438.438 0 010 .875h-15zM5.816 6h-.602l.11.592L6.9 14.99l.08.43.436-.022 17.145-.861.39-.02.075-.381 1.508-7.538.12-.598H5.816zm5.238 17.57a2.375 2.375 0 10-3.358 3.36 2.375 2.375 0 003.358-3.36zm13.125 0a2.375 2.375 0 10-3.358 3.36 2.375 2.375 0 003.358-3.36z" fill="#000" stroke="#263248"/></svg>