<svg width="50" height="50" fill="none" xmlns="http://www.w3.org/2000/svg"><path d="M15.625 25a3.125 3.125 0 11-6.25 0 3.125 3.125 0 016.25 0zm12.5 0a3.125 3.125 0 11-6.25 0 3.125 3.125 0 016.25 0zm9.375 3.125a3.125 3.125 0 100-6.25 3.125 3.125 0 000 6.25z" fill="#000"/><path d="M15.625 25a3.125 3.125 0 11-6.25 0 3.125 3.125 0 016.25 0zm12.5 0a3.125 3.125 0 11-6.25 0 3.125 3.125 0 016.25 0zm9.375 3.125a3.125 3.125 0 100-6.25 3.125 3.125 0 000 6.25z" fill="#B9C3D5"/><path d="M6.766 49.384l.062-.012c5.719-1.135 9.213-2.631 10.838-3.453 2.392.638 4.858.96 7.334.956 13.806 0 25-9.794 25-21.875S38.806 3.125 25 3.125 0 12.919 0 25c0 5.5 2.322 10.531 6.156 14.375-.268 2.47-.817 4.9-1.637 7.244l-.01.034a33.476 33.476 0 01-.762 1.99c-.247.582.231 1.232.853 1.132a67.885 67.885 0 002.166-.39zm2.5-9.712a3.125 3.125 0 00-.897-2.503C5.056 33.844 3.125 29.588 3.125 25c0-9.975 9.387-18.75 21.875-18.75 12.487 0 21.875 8.775 21.875 18.75 0 9.978-9.388 18.75-21.875 18.75a25.19 25.19 0 01-6.525-.85 3.125 3.125 0 00-2.222.231c-1.21.613-3.875 1.782-8.231 2.79a34.281 34.281 0 001.244-6.25z" fill="#000"/><path d="M6.766 49.384l.062-.012c5.719-1.135 9.213-2.631 10.838-3.453 2.392.638 4.858.96 7.334.956 13.806 0 25-9.794 25-21.875S38.806 3.125 25 3.125 0 12.919 0 25c0 5.5 2.322 10.531 6.156 14.375-.268 2.47-.817 4.9-1.637 7.244l-.01.034a33.476 33.476 0 01-.762 1.99c-.247.582.231 1.232.853 1.132a67.885 67.885 0 002.166-.39zm2.5-9.712a3.125 3.125 0 00-.897-2.503C5.056 33.844 3.125 29.588 3.125 25c0-9.975 9.387-18.75 21.875-18.75 12.487 0 21.875 8.775 21.875 18.75 0 9.978-9.388 18.75-21.875 18.75a25.19 25.19 0 01-6.525-.85 3.125 3.125 0 00-2.222.231c-1.21.613-3.875 1.782-8.231 2.79a34.281 34.281 0 001.244-6.25z" fill="#B9C3D5"/></svg>