<svg width="50" height="50" fill="none" xmlns="http://www.w3.org/2000/svg"><path d="M0 12.5a6.25 6.25 0 016.25-6.25h37.5A6.25 6.25 0 0150 12.5v25a6.25 6.25 0 01-6.25 6.25H6.25A6.25 6.25 0 010 37.5v-25zm6.25-3.125A3.125 3.125 0 003.125 12.5v.678L25 26.303l21.875-13.125V12.5a3.125 3.125 0 00-3.125-3.125H6.25zm40.625 7.447L32.163 25.65l14.712 9.053V16.822zm-.106 21.487L29.144 27.463 25 29.947l-4.144-2.485L3.231 38.306a3.125 3.125 0 003.019 2.319h37.5a3.125 3.125 0 003.019-2.316zM3.125 34.703l14.712-9.053-14.712-8.828v17.881z" fill="#000"/><path d="M0 12.5a6.25 6.25 0 016.25-6.25h37.5A6.25 6.25 0 0150 12.5v25a6.25 6.25 0 01-6.25 6.25H6.25A6.25 6.25 0 010 37.5v-25zm6.25-3.125A3.125 3.125 0 003.125 12.5v.678L25 26.303l21.875-13.125V12.5a3.125 3.125 0 00-3.125-3.125H6.25zm40.625 7.447L32.163 25.65l14.712 9.053V16.822zm-.106 21.487L29.144 27.463 25 29.947l-4.144-2.485L3.231 38.306a3.125 3.125 0 003.019 2.319h37.5a3.125 3.125 0 003.019-2.316zM3.125 34.703l14.712-9.053-14.712-8.828v17.881z" fill="#B9C3D5"/></svg>