<svg width="469" height="198" fill="none" xmlns="http://www.w3.org/2000/svg"><g opacity=".5"><g clip-path="url(#clip0_100_3795)"><path d="M455.042 9.18H189.226c-7.255 0-13.136 5.743-13.136 12.828v155.44c0 7.084 5.881 12.827 13.136 12.827h265.816c7.255 0 13.137-5.743 13.137-12.827V22.008c0-7.085-5.882-12.828-13.137-12.828z" fill="#C4C4C4"/><path d="M455.042 9.18H189.226c-7.255 0-13.136 5.743-13.136 12.828v155.44c0 7.084 5.881 12.827 13.136 12.827h265.816c7.255 0 13.137-5.743 13.137-12.827V22.008c0-7.085-5.882-12.828-13.137-12.828z" fill="url(#paint0_linear_100_3795)"/><path d="M455.042 9.18H189.226c-7.255 0-13.136 5.743-13.136 12.828v155.44c0 7.084 5.881 12.827 13.136 12.827h265.816c7.255 0 13.137-5.743 13.137-12.827V22.008c0-7.085-5.882-12.828-13.137-12.828z" fill="#B9C3D5"/><path fill="#2D2D2D" d="M176.09 24.86h292.089v43.118H176.09z"/><path fill="#fff" d="M176.09 24.86h292.089v43.118H176.09z"/><path opacity=".67" d="M412.928 177.232c7.041 0 12.75-5.641 12.75-12.599 0-6.959-5.709-12.6-12.75-12.6-7.042 0-12.75 5.641-12.75 12.6 0 6.958 5.708 12.599 12.75 12.599z" fill="#fff"/><path d="M431.473 177.232c7.041 0 12.749-5.641 12.749-12.599 0-6.959-5.708-12.6-12.749-12.6-7.042 0-12.75 5.641-12.75 12.6 0 6.958 5.708 12.599 12.75 12.599zm-72.488-88.785h-1.233a2.552 2.552 0 00-.383-.935 2.541 2.541 0 00-.656-.676 2.777 2.777 0 00-.85-.417 3.395 3.395 0 00-.974-.14c-.617 0-1.175.156-1.676.468-.497.311-.893.77-1.188 1.377-.292.606-.438 1.35-.438 2.232 0 .882.146 1.626.438 2.232.295.607.691 1.066 1.188 1.378a3.108 3.108 0 001.676.467c.338 0 .662-.047.974-.14a2.83 2.83 0 00.85-.412 2.612 2.612 0 001.039-1.616h1.233a4.12 4.12 0 01-.507 1.397 3.807 3.807 0 01-2.143 1.7 4.57 4.57 0 01-1.446.224c-.869 0-1.641-.212-2.317-.636-.676-.424-1.208-1.028-1.596-1.81-.388-.782-.582-1.71-.582-2.784 0-1.074.194-2.002.582-2.784.388-.782.92-1.385 1.596-1.81.676-.424 1.448-.636 2.317-.636.513 0 .996.075 1.446.224.454.149.864.368 1.228.656.365.285.67.633.915 1.044.245.408.414.873.507 1.397zm3.41-3.182l3.023 8.571h.119l3.023-8.57h1.293l-3.739 10.181h-1.273l-3.738-10.182h1.292zm10.461 0l3.023 8.571h.119l3.023-8.57h1.292l-3.738 10.181h-1.273l-3.739-10.182h1.293z" fill="#fff"/></g><g clip-path="url(#clip1_100_3795)"><path d="M307.645 0H14.487C6.487 0 0 6.272 0 14.01v169.766c0 7.737 6.486 14.01 14.487 14.01h293.158c8.001 0 14.487-6.273 14.487-14.01V14.01c0-7.738-6.486-14.01-14.487-14.01z" fill="#C4C4C4"/><path d="M307.645 0H14.487C6.487 0 0 6.272 0 14.01v169.766c0 7.737 6.486 14.01 14.487 14.01h293.158c8.001 0 14.487-6.273 14.487-14.01V14.01c0-7.738-6.486-14.01-14.487-14.01z" fill="url(#paint1_linear_100_3795)"/><path d="M307.645 0H14.487C6.487 0 0 6.272 0 14.01v169.766c0 7.737 6.486 14.01 14.487 14.01h293.158c8.001 0 14.487-6.273 14.487-14.01V14.01c0-7.738-6.486-14.01-14.487-14.01z" fill="#B9C3D5"/><path d="M34.154 170.198c-.276-1.493-1.496-2.375-2.992-2.375-1.903 0-3.283 1.436-3.283 3.739s1.38 3.739 3.283 3.739c1.496 0 2.716-.882 2.992-2.374h-.9c-.218 1.009-1.104 1.55-2.092 1.55-1.351 0-2.412-1.024-2.412-2.915s1.06-2.914 2.412-2.914c.988 0 1.874.54 2.092 1.55h.9zm1.251 5.004h.9v-2.844h1.628c.065 0 .127 0 .188-.003l1.57 2.847h1.045l-1.681-3.007c.948-.316 1.39-1.073 1.39-2.04 0-1.287-.784-2.232-2.527-2.232h-2.513v7.279zm.9-3.64v-2.857h1.584c1.206 0 1.67.576 1.67 1.45s-.464 1.407-1.655 1.407h-1.598zm5.437 3.64h4.547v-.783h-3.647v-2.473h3.356v-.782h-3.356v-2.459h3.588v-.782h-4.488v7.279zm8.202 0c2.266 0 3.545-1.379 3.545-3.654 0-2.26-1.279-3.625-3.443-3.625h-2.397v7.279h2.295zm-1.394-.783v-5.714h1.438c1.743 0 2.63 1.081 2.63 2.843 0 1.777-.887 2.871-2.732 2.871H48.55zm7.146-6.496h-.901v7.279h.9v-7.279zm1.194.782h2.339v6.497h.9v-6.497h2.339v-.782H56.89v.782z" fill="#fff"/><path d="M34.154 170.198c-.276-1.493-1.496-2.375-2.992-2.375-1.903 0-3.283 1.436-3.283 3.739s1.38 3.739 3.283 3.739c1.496 0 2.716-.882 2.992-2.374h-.9c-.218 1.009-1.104 1.55-2.092 1.55-1.351 0-2.412-1.024-2.412-2.915s1.06-2.914 2.412-2.914c.988 0 1.874.54 2.092 1.55h.9zm1.251 5.004h.9v-2.844h1.628c.065 0 .127 0 .188-.003l1.57 2.847h1.045l-1.681-3.007c.948-.316 1.39-1.073 1.39-2.04 0-1.287-.784-2.232-2.527-2.232h-2.513v7.279zm.9-3.64v-2.857h1.584c1.206 0 1.67.576 1.67 1.45s-.464 1.407-1.655 1.407h-1.598zm5.437 3.64h4.547v-.783h-3.647v-2.473h3.356v-.782h-3.356v-2.459h3.588v-.782h-4.488v7.279zm8.202 0c2.266 0 3.545-1.379 3.545-3.654 0-2.26-1.279-3.625-3.443-3.625h-2.397v7.279h2.295zm-1.394-.783v-5.714h1.438c1.743 0 2.63 1.081 2.63 2.843 0 1.777-.887 2.871-2.732 2.871H48.55zm7.146-6.496h-.901v7.279h.9v-7.279zm1.194.782h2.339v6.497h.9v-6.497h2.339v-.782H56.89v.782z" fill="url(#paint2_linear_100_3795)"/><path d="M34.154 170.198c-.276-1.493-1.496-2.375-2.992-2.375-1.903 0-3.283 1.436-3.283 3.739s1.38 3.739 3.283 3.739c1.496 0 2.716-.882 2.992-2.374h-.9c-.218 1.009-1.104 1.55-2.092 1.55-1.351 0-2.412-1.024-2.412-2.915s1.06-2.914 2.412-2.914c.988 0 1.874.54 2.092 1.55h.9zm1.251 5.004h.9v-2.844h1.628c.065 0 .127 0 .188-.003l1.57 2.847h1.045l-1.681-3.007c.948-.316 1.39-1.073 1.39-2.04 0-1.287-.784-2.232-2.527-2.232h-2.513v7.279zm.9-3.64v-2.857h1.584c1.206 0 1.67.576 1.67 1.45s-.464 1.407-1.655 1.407h-1.598zm5.437 3.64h4.547v-.783h-3.647v-2.473h3.356v-.782h-3.356v-2.459h3.588v-.782h-4.488v7.279zm8.202 0c2.266 0 3.545-1.379 3.545-3.654 0-2.26-1.279-3.625-3.443-3.625h-2.397v7.279h2.295zm-1.394-.783v-5.714h1.438c1.743 0 2.63 1.081 2.63 2.843 0 1.777-.887 2.871-2.732 2.871H48.55zm7.146-6.496h-.901v7.279h.9v-7.279zm1.194.782h2.339v6.497h.9v-6.497h2.339v-.782H56.89v.782zm14.762 1.493c-.276-1.493-1.496-2.375-2.992-2.375-1.903 0-3.283 1.436-3.283 3.739s1.38 3.739 3.283 3.739c1.496 0 2.716-.882 2.992-2.374h-.9c-.218 1.009-1.104 1.55-2.092 1.55-1.351 0-2.411-1.024-2.411-2.915s1.06-2.914 2.41-2.914c.989 0 1.875.54 2.093 1.55h.9zm1.556 5.004l.748-2.062h3.007l.748 2.062h.945l-2.732-7.279h-.93l-2.73 7.279h.944zm1.032-2.844l1.19-3.284h.059l1.19 3.284h-2.44zm5.37 2.844h.9v-2.844h1.627c.065 0 .127 0 .189-.003l1.569 2.847h1.045l-1.68-3.007c.947-.316 1.39-1.073 1.39-2.04 0-1.287-.784-2.232-2.528-2.232H79.61v7.279zm.9-3.64v-2.857h1.583c1.206 0 1.67.576 1.67 1.45s-.464 1.407-1.655 1.407H80.51zm7.732 3.64c2.266 0 3.544-1.379 3.544-3.654 0-2.26-1.278-3.625-3.443-3.625h-2.397v7.279h2.296zm-1.395-.783v-5.714h1.438c1.743 0 2.63 1.081 2.63 2.843 0 1.777-.887 2.871-2.732 2.871h-1.336z" fill="#fff"/><path d="M71.652 170.198c-.276-1.493-1.496-2.375-2.992-2.375-1.903 0-3.283 1.436-3.283 3.739s1.38 3.739 3.283 3.739c1.496 0 2.716-.882 2.992-2.374h-.9c-.218 1.009-1.104 1.55-2.092 1.55-1.351 0-2.411-1.024-2.411-2.915s1.06-2.914 2.41-2.914c.989 0 1.875.54 2.093 1.55h.9zm1.556 5.004l.748-2.062h3.007l.748 2.062h.945l-2.732-7.279h-.93l-2.73 7.279h.944zm1.032-2.844l1.19-3.284h.059l1.19 3.284h-2.44zm5.37 2.844h.9v-2.844h1.627c.065 0 .127 0 .189-.003l1.569 2.847h1.045l-1.68-3.007c.947-.316 1.39-1.073 1.39-2.04 0-1.287-.784-2.232-2.528-2.232H79.61v7.279zm.9-3.64v-2.857h1.583c1.206 0 1.67.576 1.67 1.45s-.464 1.407-1.655 1.407H80.51zm7.732 3.64c2.266 0 3.544-1.379 3.544-3.654 0-2.26-1.278-3.625-3.443-3.625h-2.397v7.279h2.296zm-1.395-.783v-5.714h1.438c1.743 0 2.63 1.081 2.63 2.843 0 1.777-.887 2.871-2.732 2.871h-1.336z" fill="url(#paint3_linear_100_3795)"/><path d="M71.652 170.198c-.276-1.493-1.496-2.375-2.992-2.375-1.903 0-3.283 1.436-3.283 3.739s1.38 3.739 3.283 3.739c1.496 0 2.716-.882 2.992-2.374h-.9c-.218 1.009-1.104 1.55-2.092 1.55-1.351 0-2.411-1.024-2.411-2.915s1.06-2.914 2.41-2.914c.989 0 1.875.54 2.093 1.55h.9zm1.556 5.004l.748-2.062h3.007l.748 2.062h.945l-2.732-7.279h-.93l-2.73 7.279h.944zm1.032-2.844l1.19-3.284h.059l1.19 3.284h-2.44zm5.37 2.844h.9v-2.844h1.627c.065 0 .127 0 .189-.003l1.569 2.847h1.045l-1.68-3.007c.947-.316 1.39-1.073 1.39-2.04 0-1.287-.784-2.232-2.528-2.232H79.61v7.279zm.9-3.64v-2.857h1.583c1.206 0 1.67.576 1.67 1.45s-.464 1.407-1.655 1.407H80.51zm7.732 3.64c2.266 0 3.544-1.379 3.544-3.654 0-2.26-1.278-3.625-3.443-3.625h-2.397v7.279h2.296zm-1.395-.783v-5.714h1.438c1.743 0 2.63 1.081 2.63 2.843 0 1.777-.887 2.871-2.732 2.871h-1.336zm-51.673-68.602h-1.877l-3.873 2.517v1.866l3.783-2.458h.09v13.238h1.877v-15.163zm4.456 15.163h9.775v-1.629h-7.203v-.118l3.48-3.643c2.664-2.791 3.45-4.095 3.45-5.775 0-2.34-1.936-4.205-4.66-4.205-2.716 0-4.782 1.806-4.782 4.472h1.786c0-1.726 1.142-2.873 2.935-2.873 1.68 0 2.966 1.007 2.966 2.606 0 1.399-.84 2.436-2.633 4.353l-5.114 5.48v1.332zm18.135.208c3.004 0 5.235-1.844 5.235-4.324 0-1.925-1.165-3.325-3.117-3.643v-.119c1.566-.466 2.542-1.725 2.542-3.435 0-2.147-1.732-4.057-4.6-4.057-2.678 0-4.902 1.614-4.993 3.998h1.816c.068-1.51 1.536-2.399 3.147-2.399 1.71 0 2.815 1.014 2.815 2.547 0 1.599-1.279 2.636-3.117 2.636h-1.241v1.629h1.24c2.354 0 3.662 1.17 3.662 2.843 0 1.606-1.43 2.694-3.42 2.694-1.792 0-3.215-.903-3.328-2.368h-1.907c.114 2.383 2.262 3.998 5.266 3.998zm7.967-3.318h7.293v3.11h1.785v-3.11h2.119v-1.628H74.81v-10.425h-2.27l-6.81 10.543v1.51zm7.293-1.628h-5.266v-.119l5.145-7.966h.121v8.085z" fill="#fff"/><path d="M35.174 105.817h-1.877l-3.873 2.517v1.866l3.783-2.458h.09v13.238h1.877v-15.163zm4.456 15.163h9.775v-1.629h-7.203v-.118l3.48-3.643c2.664-2.791 3.45-4.095 3.45-5.775 0-2.34-1.936-4.205-4.66-4.205-2.716 0-4.782 1.806-4.782 4.472h1.786c0-1.726 1.142-2.873 2.935-2.873 1.68 0 2.966 1.007 2.966 2.606 0 1.399-.84 2.436-2.633 4.353l-5.114 5.48v1.332zm18.135.208c3.004 0 5.235-1.844 5.235-4.324 0-1.925-1.165-3.325-3.117-3.643v-.119c1.566-.466 2.542-1.725 2.542-3.435 0-2.147-1.732-4.057-4.6-4.057-2.678 0-4.902 1.614-4.993 3.998h1.816c.068-1.51 1.536-2.399 3.147-2.399 1.71 0 2.815 1.014 2.815 2.547 0 1.599-1.279 2.636-3.117 2.636h-1.241v1.629h1.24c2.354 0 3.662 1.17 3.662 2.843 0 1.606-1.43 2.694-3.42 2.694-1.792 0-3.215-.903-3.328-2.368h-1.907c.114 2.383 2.262 3.998 5.266 3.998zm7.967-3.318h7.293v3.11h1.785v-3.11h2.119v-1.628H74.81v-10.425h-2.27l-6.81 10.543v1.51zm7.293-1.628h-5.266v-.119l5.145-7.966h.121v8.085z" fill="url(#paint4_linear_100_3795)"/><path d="M35.174 105.817h-1.877l-3.873 2.517v1.866l3.783-2.458h.09v13.238h1.877v-15.163zm4.456 15.163h9.775v-1.629h-7.203v-.118l3.48-3.643c2.664-2.791 3.45-4.095 3.45-5.775 0-2.34-1.936-4.205-4.66-4.205-2.716 0-4.782 1.806-4.782 4.472h1.786c0-1.726 1.142-2.873 2.935-2.873 1.68 0 2.966 1.007 2.966 2.606 0 1.399-.84 2.436-2.633 4.353l-5.114 5.48v1.332zm18.135.208c3.004 0 5.235-1.844 5.235-4.324 0-1.925-1.165-3.325-3.117-3.643v-.119c1.566-.466 2.542-1.725 2.542-3.435 0-2.147-1.732-4.057-4.6-4.057-2.678 0-4.902 1.614-4.993 3.998h1.816c.068-1.51 1.536-2.399 3.147-2.399 1.71 0 2.815 1.014 2.815 2.547 0 1.599-1.279 2.636-3.117 2.636h-1.241v1.629h1.24c2.354 0 3.662 1.17 3.662 2.843 0 1.606-1.43 2.694-3.42 2.694-1.792 0-3.215-.903-3.328-2.368h-1.907c.114 2.383 2.262 3.998 5.266 3.998zm7.967-3.318h7.293v3.11h1.785v-3.11h2.119v-1.628H74.81v-10.425h-2.27l-6.81 10.543v1.51zm7.293-1.628h-5.266v-.119l5.145-7.966h.121v8.085zm26.31 4.956c2.95 0 5.114-2.133 5.114-5.035 0-2.94-2.088-5.094-4.933-5.094-1.044 0-2.058.363-2.693.859h-.09l.544-4.473h6.477v-1.629h-8.05l-.938 7.464 1.754.207c.644-.452 1.74-.778 2.694-.77 1.975.015 3.42 1.481 3.42 3.465 0 1.947-1.393 3.376-3.299 3.376-1.588 0-2.852-.999-2.996-2.368h-1.816c.114 2.309 2.149 3.998 4.812 3.998zm13.264 0c3.132.036 5.175-2.274 5.175-5.094 0-2.933-2.217-5.035-4.872-5.035a4.529 4.529 0 00-3.813 2.013h-.121c.008-3.724 1.475-5.864 3.874-5.864 1.634 0 2.617 1.008 2.965 2.4h1.846c-.377-2.385-2.209-4.028-4.811-4.028-3.489 0-5.629 3.02-5.629 8.41 0 5.606 2.844 7.168 5.386 7.198zm0-1.63c-1.944 0-3.367-1.621-3.359-3.435.008-1.814 1.498-3.435 3.42-3.435 1.899 0 3.299 1.525 3.299 3.406 0 1.925-1.461 3.464-3.36 3.464zm8.635 1.422h1.967l6.9-13.446v-1.718h-9.926v1.629h7.989v.119l-6.93 13.416zm16.338.208c3.095 0 5.251-1.77 5.266-4.236-.015-1.917-1.324-3.546-2.996-3.85v-.089c1.452-.37 2.406-1.761 2.421-3.376-.015-2.31-1.998-4.027-4.691-4.027-2.723 0-4.705 1.717-4.691 4.027-.014 1.615.938 3.006 2.421 3.376v.089c-1.702.304-3.011 1.933-2.995 3.85-.016 2.466 2.14 4.236 5.265 4.236zm0-1.63c-2.126 0-3.435-1.066-3.419-2.695-.016-1.71 1.43-2.932 3.419-2.932 1.96 0 3.405 1.222 3.419 2.932-.014 1.629-1.323 2.695-3.419 2.695zm0-7.196c-1.695 0-2.89-1.037-2.875-2.607-.015-1.539 1.135-2.547 2.875-2.547 1.71 0 2.86 1.008 2.875 2.547-.015 1.57-1.21 2.607-2.875 2.607z" fill="#fff"/><path d="M99.335 121.198c2.95 0 5.114-2.133 5.114-5.035 0-2.94-2.088-5.094-4.933-5.094-1.044 0-2.058.363-2.693.859h-.09l.544-4.473h6.477v-1.629h-8.05l-.938 7.464 1.754.207c.644-.452 1.74-.778 2.694-.77 1.975.015 3.42 1.481 3.42 3.465 0 1.947-1.393 3.376-3.299 3.376-1.588 0-2.852-.999-2.996-2.368h-1.816c.114 2.309 2.149 3.998 4.812 3.998zm13.264 0c3.132.036 5.175-2.274 5.175-5.094 0-2.933-2.217-5.035-4.872-5.035a4.529 4.529 0 00-3.813 2.013h-.121c.008-3.724 1.475-5.864 3.874-5.864 1.634 0 2.617 1.008 2.965 2.4h1.846c-.377-2.385-2.209-4.028-4.811-4.028-3.489 0-5.629 3.02-5.629 8.41 0 5.606 2.844 7.168 5.386 7.198zm0-1.63c-1.944 0-3.367-1.621-3.359-3.435.008-1.814 1.498-3.435 3.42-3.435 1.899 0 3.299 1.525 3.299 3.406 0 1.925-1.461 3.464-3.36 3.464zm8.635 1.422h1.967l6.9-13.446v-1.718h-9.926v1.629h7.989v.119l-6.93 13.416zm16.338.208c3.095 0 5.251-1.77 5.266-4.236-.015-1.917-1.324-3.546-2.996-3.85v-.089c1.452-.37 2.406-1.761 2.421-3.376-.015-2.31-1.998-4.027-4.691-4.027-2.723 0-4.705 1.717-4.691 4.027-.014 1.615.938 3.006 2.421 3.376v.089c-1.702.304-3.011 1.933-2.995 3.85-.016 2.466 2.14 4.236 5.265 4.236zm0-1.63c-2.126 0-3.435-1.066-3.419-2.695-.016-1.71 1.43-2.932 3.419-2.932 1.96 0 3.405 1.222 3.419 2.932-.014 1.629-1.323 2.695-3.419 2.695zm0-7.196c-1.695 0-2.89-1.037-2.875-2.607-.015-1.539 1.135-2.547 2.875-2.547 1.71 0 2.86 1.008 2.875 2.547-.015 1.57-1.21 2.607-2.875 2.607z" fill="url(#paint5_linear_100_3795)"/><path d="M99.335 121.198c2.95 0 5.114-2.133 5.114-5.035 0-2.94-2.088-5.094-4.933-5.094-1.044 0-2.058.363-2.693.859h-.09l.544-4.473h6.477v-1.629h-8.05l-.938 7.464 1.754.207c.644-.452 1.74-.778 2.694-.77 1.975.015 3.42 1.481 3.42 3.465 0 1.947-1.393 3.376-3.299 3.376-1.588 0-2.852-.999-2.996-2.368h-1.816c.114 2.309 2.149 3.998 4.812 3.998zm13.264 0c3.132.036 5.175-2.274 5.175-5.094 0-2.933-2.217-5.035-4.872-5.035a4.529 4.529 0 00-3.813 2.013h-.121c.008-3.724 1.475-5.864 3.874-5.864 1.634 0 2.617 1.008 2.965 2.4h1.846c-.377-2.385-2.209-4.028-4.811-4.028-3.489 0-5.629 3.02-5.629 8.41 0 5.606 2.844 7.168 5.386 7.198zm0-1.63c-1.944 0-3.367-1.621-3.359-3.435.008-1.814 1.498-3.435 3.42-3.435 1.899 0 3.299 1.525 3.299 3.406 0 1.925-1.461 3.464-3.36 3.464zm8.635 1.422h1.967l6.9-13.446v-1.718h-9.926v1.629h7.989v.119l-6.93 13.416zm16.338.208c3.095 0 5.251-1.77 5.266-4.236-.015-1.917-1.324-3.546-2.996-3.85v-.089c1.452-.37 2.406-1.761 2.421-3.376-.015-2.31-1.998-4.027-4.691-4.027-2.723 0-4.705 1.717-4.691 4.027-.014 1.615.938 3.006 2.421 3.376v.089c-1.702.304-3.011 1.933-2.995 3.85-.016 2.466 2.14 4.236 5.265 4.236zm0-1.63c-2.126 0-3.435-1.066-3.419-2.695-.016-1.71 1.43-2.932 3.419-2.932 1.96 0 3.405 1.222 3.419 2.932-.014 1.629-1.323 2.695-3.419 2.695zm0-7.196c-1.695 0-2.89-1.037-2.875-2.607-.015-1.539 1.135-2.547 2.875-2.547 1.71 0 2.86 1.008 2.875 2.547-.015 1.57-1.21 2.607-2.875 2.607z" fill="#fff"/><path d="M172.834 121.188c3.42 0 5.388-2.836 5.388-7.79 0-4.916-1.998-7.788-5.388-7.788-3.389 0-5.387 2.872-5.387 7.788 0 4.954 1.968 7.79 5.387 7.79zm0-1.63c-2.254 0-3.571-2.213-3.571-6.16 0-3.938 1.332-6.189 3.571-6.189 2.24 0 3.572 2.251 3.572 6.189 0 3.947-1.317 6.16-3.572 6.16zm13.709-13.741h-1.876l-3.873 2.517v1.866l3.783-2.458h.09v13.238h1.876v-15.163zM191 120.98h9.774v-1.629h-7.202v-.118l3.48-3.643c2.663-2.791 3.451-4.095 3.451-5.775 0-2.34-1.938-4.205-4.661-4.205-2.716 0-4.782 1.806-4.782 4.472h1.785c0-1.726 1.143-2.873 2.936-2.873 1.68 0 2.966 1.007 2.966 2.606 0 1.399-.839 2.436-2.632 4.353l-5.115 5.48v1.332zm18.134.208c3.004 0 5.236-1.844 5.236-4.324 0-1.925-1.165-3.325-3.117-3.643v-.119c1.566-.466 2.542-1.725 2.542-3.435 0-2.147-1.732-4.057-4.6-4.057-2.678 0-4.902 1.614-4.993 3.998h1.816c.068-1.51 1.536-2.399 3.147-2.399 1.71 0 2.814 1.014 2.814 2.547 0 1.599-1.278 2.636-3.116 2.636h-1.241v1.629h1.241c2.353 0 3.662 1.17 3.662 2.843 0 1.606-1.43 2.694-3.42 2.694-1.793 0-3.216-.903-3.329-2.368h-1.907c.114 2.383 2.262 3.998 5.265 3.998z" fill="url(#paint6_linear_100_3795)"/><path d="M172.834 121.188c3.42 0 5.388-2.836 5.388-7.79 0-4.916-1.998-7.788-5.388-7.788-3.389 0-5.387 2.872-5.387 7.788 0 4.954 1.968 7.79 5.387 7.79zm0-1.63c-2.254 0-3.571-2.213-3.571-6.16 0-3.938 1.332-6.189 3.571-6.189 2.24 0 3.572 2.251 3.572 6.189 0 3.947-1.317 6.16-3.572 6.16zm13.709-13.741h-1.876l-3.873 2.517v1.866l3.783-2.458h.09v13.238h1.876v-15.163zM191 120.98h9.774v-1.629h-7.202v-.118l3.48-3.643c2.663-2.791 3.451-4.095 3.451-5.775 0-2.34-1.938-4.205-4.661-4.205-2.716 0-4.782 1.806-4.782 4.472h1.785c0-1.726 1.143-2.873 2.936-2.873 1.68 0 2.966 1.007 2.966 2.606 0 1.399-.839 2.436-2.632 4.353l-5.115 5.48v1.332zm18.134.208c3.004 0 5.236-1.844 5.236-4.324 0-1.925-1.165-3.325-3.117-3.643v-.119c1.566-.466 2.542-1.725 2.542-3.435 0-2.147-1.732-4.057-4.6-4.057-2.678 0-4.902 1.614-4.993 3.998h1.816c.068-1.51 1.536-2.399 3.147-2.399 1.71 0 2.814 1.014 2.814 2.547 0 1.599-1.278 2.636-3.116 2.636h-1.241v1.629h1.241c2.353 0 3.662 1.17 3.662 2.843 0 1.606-1.43 2.694-3.42 2.694-1.793 0-3.216-.903-3.329-2.368h-1.907c.114 2.383 2.262 3.998 5.265 3.998zm30.72-3.308h7.293v3.11h1.785v-3.11h2.119v-1.629h-2.119v-10.425h-2.269l-6.809 10.544v1.51zm7.293-1.629h-5.266v-.118l5.145-7.966h.121v8.084zm11.581 4.947c2.95 0 5.114-2.133 5.114-5.035 0-2.94-2.088-5.094-4.932-5.094-1.044 0-2.058.363-2.693.859h-.092l.545-4.473h6.477v-1.629h-8.05l-.938 7.464 1.754.207c.644-.452 1.74-.778 2.694-.77 1.975.015 3.42 1.481 3.42 3.465 0 1.947-1.393 3.376-3.299 3.376-1.588 0-2.852-.999-2.996-2.368h-1.815c.113 2.309 2.148 3.998 4.811 3.998zm13.265 0c3.131.036 5.174-2.274 5.174-5.094 0-2.933-2.216-5.035-4.872-5.035a4.529 4.529 0 00-3.813 2.013h-.121c.008-3.724 1.476-5.864 3.874-5.864 1.634 0 2.618 1.008 2.965 2.4h1.846c-.377-2.385-2.209-4.028-4.811-4.028-3.488 0-5.629 3.02-5.629 8.41 0 5.606 2.845 7.168 5.387 7.198zm0-1.63c-1.945 0-3.367-1.621-3.36-3.435.008-1.814 1.498-3.435 3.42-3.435 1.899 0 3.299 1.525 3.299 3.406 0 1.925-1.461 3.464-3.359 3.464zm8.634 1.422h1.967l6.9-13.446v-1.718h-9.926v1.629h7.989v.119l-6.93 13.416z" fill="#fff"/><path d="M239.854 117.88h7.293v3.11h1.785v-3.11h2.119v-1.629h-2.119v-10.425h-2.269l-6.809 10.544v1.51zm7.293-1.629h-5.266v-.118l5.145-7.966h.121v8.084zm11.581 4.947c2.95 0 5.114-2.133 5.114-5.035 0-2.94-2.088-5.094-4.932-5.094-1.044 0-2.058.363-2.693.859h-.092l.545-4.473h6.477v-1.629h-8.05l-.938 7.464 1.754.207c.644-.452 1.74-.778 2.694-.77 1.975.015 3.42 1.481 3.42 3.465 0 1.947-1.393 3.376-3.299 3.376-1.588 0-2.852-.999-2.996-2.368h-1.815c.113 2.309 2.148 3.998 4.811 3.998zm13.265 0c3.131.036 5.174-2.274 5.174-5.094 0-2.933-2.216-5.035-4.872-5.035a4.529 4.529 0 00-3.813 2.013h-.121c.008-3.724 1.476-5.864 3.874-5.864 1.634 0 2.618 1.008 2.965 2.4h1.846c-.377-2.385-2.209-4.028-4.811-4.028-3.488 0-5.629 3.02-5.629 8.41 0 5.606 2.845 7.168 5.387 7.198zm0-1.63c-1.945 0-3.367-1.621-3.36-3.435.008-1.814 1.498-3.435 3.42-3.435 1.899 0 3.299 1.525 3.299 3.406 0 1.925-1.461 3.464-3.359 3.464zm8.634 1.422h1.967l6.9-13.446v-1.718h-9.926v1.629h7.989v.119l-6.93 13.416z" fill="url(#paint7_linear_100_3795)"/><path d="M239.854 117.88h7.293v3.11h1.785v-3.11h2.119v-1.629h-2.119v-10.425h-2.269l-6.809 10.544v1.51zm7.293-1.629h-5.266v-.118l5.145-7.966h.121v8.084zm11.581 4.947c2.95 0 5.114-2.133 5.114-5.035 0-2.94-2.088-5.094-4.932-5.094-1.044 0-2.058.363-2.693.859h-.092l.545-4.473h6.477v-1.629h-8.05l-.938 7.464 1.754.207c.644-.452 1.74-.778 2.694-.77 1.975.015 3.42 1.481 3.42 3.465 0 1.947-1.393 3.376-3.299 3.376-1.588 0-2.852-.999-2.996-2.368h-1.815c.113 2.309 2.148 3.998 4.811 3.998zm13.265 0c3.131.036 5.174-2.274 5.174-5.094 0-2.933-2.216-5.035-4.872-5.035a4.529 4.529 0 00-3.813 2.013h-.121c.008-3.724 1.476-5.864 3.874-5.864 1.634 0 2.618 1.008 2.965 2.4h1.846c-.377-2.385-2.209-4.028-4.811-4.028-3.488 0-5.629 3.02-5.629 8.41 0 5.606 2.845 7.168 5.387 7.198zm0-1.63c-1.945 0-3.367-1.621-3.36-3.435.008-1.814 1.498-3.435 3.42-3.435 1.899 0 3.299 1.525 3.299 3.406 0 1.925-1.461 3.464-3.359 3.464zm8.634 1.422h1.967l6.9-13.446v-1.718h-9.926v1.629h7.989v.119l-6.93 13.416z" fill="#fff"/><path d="M80.109 54.271h-50.28c-1.883 0-3.41 1.494-3.41 3.336V89.3c0 1.842 1.527 3.336 3.41 3.336h50.28c1.882 0 3.408-1.494 3.408-3.336V57.607c0-1.842-1.526-3.336-3.408-3.336z" fill="#EAC35F"/><path d="M80.109 54.271h-50.28c-1.883 0-3.41 1.494-3.41 3.336V89.3c0 1.842 1.527 3.336 3.41 3.336h50.28c1.882 0 3.408-1.494 3.408-3.336V57.607c0-1.842-1.526-3.336-3.408-3.336z" fill="#fff"/><path d="M28.123 58.441c0-1.381 1.145-2.502 2.557-2.502h14.487v5.004H28.123v-2.502z" fill="#F7E466"/><path d="M28.123 58.441c0-1.381 1.145-2.502 2.557-2.502h14.487v5.004H28.123v-2.502z" fill="#fff"/><path d="M28.123 58.441c0-1.381 1.145-2.502 2.557-2.502h14.487v5.004H28.123v-2.502z" fill="#B9C3D5"/><path d="M45.167 63.448H28.123v5.004h17.044v-5.004z" fill="#F7E466"/><path d="M45.167 63.448H28.123v5.004h17.044v-5.004z" fill="#fff"/><path d="M45.167 63.448H28.123v5.004h17.044v-5.004z" fill="#B9C3D5"/><path d="M45.167 70.957H28.123v5.003h17.044v-5.003z" fill="#F7E466"/><path d="M45.167 70.957H28.123v5.003h17.044v-5.003z" fill="#fff"/><path d="M45.167 70.957H28.123v5.003h17.044v-5.003z" fill="#B9C3D5"/><path d="M45.167 78.457H28.123v5.004h17.044v-5.004z" fill="#F7E466"/><path d="M45.167 78.457H28.123v5.004h17.044v-5.004z" fill="#B9C3D5"/><path d="M28.123 88.468c0 1.382 1.145 2.502 2.557 2.502h14.487v-5.004H28.123v2.502z" fill="#F7E466"/><path d="M28.123 88.468c0 1.382 1.145 2.502 2.557 2.502h14.487v-5.004H28.123v2.502z" fill="#B9C3D5"/><path d="M81.81 58.441c0-1.381-1.145-2.502-2.557-2.502H64.766v5.004H81.81v-2.502z" fill="#F7E466"/><path d="M81.81 58.441c0-1.381-1.145-2.502-2.557-2.502H64.766v5.004H81.81v-2.502z" fill="#fff"/><path d="M81.81 58.441c0-1.381-1.145-2.502-2.557-2.502H64.766v5.004H81.81v-2.502z" fill="#B9C3D5"/><path d="M64.766 63.448H81.81v5.004H64.767v-5.004z" fill="#F7E466"/><path d="M64.766 63.448H81.81v5.004H64.767v-5.004z" fill="#fff"/><path d="M64.766 63.448H81.81v5.004H64.767v-5.004z" fill="#B9C3D5"/><path d="M64.766 70.957H81.81v5.003H64.767v-5.003z" fill="#F7E466"/><path d="M64.766 70.957H81.81v5.003H64.767v-5.003z" fill="#B9C3D5"/><path d="M64.766 78.457H81.81v5.004H64.767v-5.004z" fill="#F7E466"/><path d="M64.766 78.457H81.81v5.004H64.767v-5.004z" fill="#B9C3D5"/><path d="M81.81 88.468c0 1.382-1.145 2.502-2.557 2.502H64.766v-5.004H81.81v2.502z" fill="#F7E466"/><path d="M81.81 88.468c0 1.382-1.145 2.502-2.557 2.502H64.766v-5.004H81.81v2.502z" fill="#B9C3D5"/><path d="M63.065 55.94H46.873v9.173h16.192V55.94z" fill="#F7E466"/><path d="M63.065 55.94H46.873v9.173h16.192V55.94z" fill="#fff"/><path d="M63.065 55.94H46.873v9.173h16.192V55.94z" fill="#B9C3D5"/><path d="M63.065 66.784H46.873v12.51h16.192v-12.51z" fill="#F7E466"/><path d="M63.065 66.784H46.873v12.51h16.192v-12.51z" fill="#fff"/><path d="M63.065 66.784H46.873v12.51h16.192v-12.51z" fill="#B9C3D5"/><path d="M63.065 80.962H46.873v9.173h16.192v-9.173z" fill="#F7E466"/><path d="M63.065 80.962H46.873v9.173h16.192v-9.173z" fill="#B9C3D5"/><path d="M230.264 39.265h5.598c3.662 0 5.175-1.747 5.175-4.028 0-2.398-1.695-3.702-3.117-3.79v-.148c1.332-.356 2.512-1.215 2.512-3.17 0-2.22-1.513-4.027-4.752-4.027h-5.416v15.163zm1.875-1.629v-5.271h3.814c2.027 0 3.299 1.332 3.299 2.872 0 1.333-.938 2.4-3.39 2.4h-3.723zm0-6.87V25.73h3.541c2.058 0 2.966 1.066 2.966 2.399 0 1.599-1.331 2.635-3.026 2.635h-3.481zm12.616 8.5l1.559-4.295h6.265l1.558 4.294h1.967l-5.689-15.163h-1.937l-5.69 15.163h1.967zm2.15-5.924l2.48-6.841h.121l2.482 6.841h-5.083zm23.9-9.24h-1.847v11.935h-.151l-8.473-11.935h-1.816v15.163h1.876V27.36h.151l8.444 11.905h1.816V24.102zm3.753 15.163h1.877V34.35l1.937-2.132 5.387 7.048h2.269l-6.506-8.322 6.506-6.841h-2.451l-6.96 7.522h-.182v-7.522h-1.877v15.163z" fill="#fff"/><path d="M230.264 39.265h5.598c3.662 0 5.175-1.747 5.175-4.028 0-2.398-1.695-3.702-3.117-3.79v-.148c1.332-.356 2.512-1.215 2.512-3.17 0-2.22-1.513-4.027-4.752-4.027h-5.416v15.163zm1.875-1.629v-5.271h3.814c2.027 0 3.299 1.332 3.299 2.872 0 1.333-.938 2.4-3.39 2.4h-3.723zm0-6.87V25.73h3.541c2.058 0 2.966 1.066 2.966 2.399 0 1.599-1.331 2.635-3.026 2.635h-3.481zm12.616 8.5l1.559-4.295h6.265l1.558 4.294h1.967l-5.689-15.163h-1.937l-5.69 15.163h1.967zm2.15-5.924l2.48-6.841h.121l2.482 6.841h-5.083zm23.9-9.24h-1.847v11.935h-.151l-8.473-11.935h-1.816v15.163h1.876V27.36h.151l8.444 11.905h1.816V24.102zm3.753 15.163h1.877V34.35l1.937-2.132 5.387 7.048h2.269l-6.506-8.322 6.506-6.841h-2.451l-6.96 7.522h-.182v-7.522h-1.877v15.163z" fill="url(#paint8_linear_100_3795)"/><path d="M230.264 39.265h5.598c3.662 0 5.175-1.747 5.175-4.028 0-2.398-1.695-3.702-3.117-3.79v-.148c1.332-.356 2.512-1.215 2.512-3.17 0-2.22-1.513-4.027-4.752-4.027h-5.416v15.163zm1.875-1.629v-5.271h3.814c2.027 0 3.299 1.332 3.299 2.872 0 1.333-.938 2.4-3.39 2.4h-3.723zm0-6.87V25.73h3.541c2.058 0 2.966 1.066 2.966 2.399 0 1.599-1.331 2.635-3.026 2.635h-3.481zm12.616 8.5l1.559-4.295h6.265l1.558 4.294h1.967l-5.689-15.163h-1.937l-5.69 15.163h1.967zm2.15-5.924l2.48-6.841h.121l2.482 6.841h-5.083zm23.9-9.24h-1.847v11.935h-.151l-8.473-11.935h-1.816v15.163h1.876V27.36h.151l8.444 11.905h1.816V24.102zm3.753 15.163h1.877V34.35l1.937-2.132 5.387 7.048h2.269l-6.506-8.322 6.506-6.841h-2.451l-6.96 7.522h-.182v-7.522h-1.877v15.163zM169.965 149.354h-.865l2.503 6.672h.853l2.502-6.672h-.864l-2.024 5.616h-.081l-2.024-5.616zm5.14 6.672l.686-1.89h2.756l.686 1.89h.865l-2.503-6.672h-.852l-2.504 6.672h.866zm.945-2.606l1.093-3.01h.053l1.091 3.01h-2.237zm4.501 2.606h3.995v-.716h-3.17v-5.956h-.825v6.672zm5.49-6.672h-.826v6.672h.826v-6.672zm3.149 6.672c2.077 0 3.249-1.264 3.249-3.349 0-2.072-1.172-3.323-3.156-3.323h-2.197v6.672h2.104zm-1.278-.716v-5.24h1.318c1.598 0 2.41.991 2.41 2.607 0 1.629-.812 2.633-2.503 2.633h-1.225z" fill="#fff"/><path d="M169.965 149.354h-.865l2.503 6.672h.853l2.502-6.672h-.864l-2.024 5.616h-.081l-2.024-5.616zm5.14 6.672l.686-1.89h2.756l.686 1.89h.865l-2.503-6.672h-.852l-2.504 6.672h.866zm.945-2.606l1.093-3.01h.053l1.091 3.01h-2.237zm4.501 2.606h3.995v-.716h-3.17v-5.956h-.825v6.672zm5.49-6.672h-.826v6.672h.826v-6.672zm3.149 6.672c2.077 0 3.249-1.264 3.249-3.349 0-2.072-1.172-3.323-3.156-3.323h-2.197v6.672h2.104zm-1.278-.716v-5.24h1.318c1.598 0 2.41.991 2.41 2.607 0 1.629-.812 2.633-2.503 2.633h-1.225z" fill="url(#paint9_linear_100_3795)"/><path d="M169.965 149.354h-.865l2.503 6.672h.853l2.502-6.672h-.864l-2.024 5.616h-.081l-2.024-5.616zm5.14 6.672l.686-1.89h2.756l.686 1.89h.865l-2.503-6.672h-.852l-2.504 6.672h.866zm.945-2.606l1.093-3.01h.053l1.091 3.01h-2.237zm4.501 2.606h3.995v-.716h-3.17v-5.956h-.825v6.672zm5.49-6.672h-.826v6.672h.826v-6.672zm3.149 6.672c2.077 0 3.249-1.264 3.249-3.349 0-2.072-1.172-3.323-3.156-3.323h-2.197v6.672h2.104zm-1.278-.716v-5.24h1.318c1.598 0 2.41.991 2.41 2.607 0 1.629-.812 2.633-2.503 2.633h-1.225z" fill="#fff"/><path d="M210.172 155.623c1.504 0 2.37-1.247 2.37-3.426 0-2.164-.879-3.427-2.37-3.427-1.492 0-2.371 1.263-2.371 3.427 0 2.179.866 3.426 2.371 3.426zm0-.716c-.993 0-1.572-.974-1.572-2.71 0-1.733.586-2.724 1.572-2.724.985 0 1.57.991 1.57 2.724 0 1.736-.578 2.71-1.57 2.71zm5.422-6.046h-.826l-1.704 1.107v.821l1.664-1.081h.04v5.825h.826v-6.672zm3.775-.313h-.72l-2.197 7.988h.72l2.197-7.988zm.308 6.985h4.301v-.717h-3.169v-.052l1.531-1.603c1.172-1.228 1.519-1.802 1.519-2.542 0-1.029-.852-1.849-2.051-1.849-1.195 0-2.104.794-2.104 1.967h.785c0-.759.503-1.264 1.292-1.264.739 0 1.305.443 1.305 1.146 0 .617-.369 1.073-1.158 1.916l-2.251 2.411v.587zm7.197.09c1.299 0 2.251-.938 2.251-2.215 0-1.293-.919-2.241-2.171-2.241-.459 0-.905.16-1.185.378h-.04l.24-1.968h2.85v-.716h-3.543l-.412 3.283.772.092c.283-.199.766-.342 1.185-.339.868.006 1.505.651 1.505 1.525 0 .856-.613 1.485-1.452 1.485-.699 0-1.255-.439-1.318-1.042h-.799c.05 1.016.945 1.758 2.117 1.758z" fill="url(#paint10_linear_100_3795)"/><path d="M210.172 155.623c1.504 0 2.37-1.247 2.37-3.426 0-2.164-.879-3.427-2.37-3.427-1.492 0-2.371 1.263-2.371 3.427 0 2.179.866 3.426 2.371 3.426zm0-.716c-.993 0-1.572-.974-1.572-2.71 0-1.733.586-2.724 1.572-2.724.985 0 1.57.991 1.57 2.724 0 1.736-.578 2.71-1.57 2.71zm5.422-6.046h-.826l-1.704 1.107v.821l1.664-1.081h.04v5.825h.826v-6.672zm3.775-.313h-.72l-2.197 7.988h.72l2.197-7.988zm.308 6.985h4.301v-.717h-3.169v-.052l1.531-1.603c1.172-1.228 1.519-1.802 1.519-2.542 0-1.029-.852-1.849-2.051-1.849-1.195 0-2.104.794-2.104 1.967h.785c0-.759.503-1.264 1.292-1.264.739 0 1.305.443 1.305 1.146 0 .617-.369 1.073-1.158 1.916l-2.251 2.411v.587zm7.197.09c1.299 0 2.251-.938 2.251-2.215 0-1.293-.919-2.241-2.171-2.241-.459 0-.905.16-1.185.378h-.04l.24-1.968h2.85v-.716h-3.543l-.412 3.283.772.092c.283-.199.766-.342 1.185-.339.868.006 1.505.651 1.505 1.525 0 .856-.613 1.485-1.452 1.485-.699 0-1.255-.439-1.318-1.042h-.799c.05 1.016.945 1.758 2.117 1.758z" fill="#fff"/><g opacity=".67" fill="#fff"><path d="M261.2 183.541c7.766 0 14.061-6.161 14.061-13.761s-6.295-13.761-14.061-13.761-14.061 6.161-14.061 13.761 6.295 13.761 14.061 13.761z"/><path d="M261.2 183.541c7.766 0 14.061-6.161 14.061-13.761s-6.295-13.761-14.061-13.761-14.061 6.161-14.061 13.761 6.295 13.761 14.061 13.761z" fill-opacity=".87"/></g><path d="M281.651 183.541c7.766 0 14.062-6.161 14.062-13.761s-6.296-13.761-14.062-13.761c-7.766 0-14.061 6.161-14.061 13.761s6.295 13.761 14.061 13.761z" fill="#fff"/><path d="M281.651 183.541c7.766 0 14.062-6.161 14.062-13.761s-6.296-13.761-14.062-13.761c-7.766 0-14.061 6.161-14.061 13.761s6.295 13.761 14.061 13.761z" fill="#fff" fill-opacity=".87"/></g></g><defs><linearGradient id="paint0_linear_100_3795" x1="468.179" y1="9.18" x2="179.884" y2="188.819" gradientUnits="userSpaceOnUse"><stop stop-color="#3DCC79"/><stop offset="1" stop-color="#2C8A54"/></linearGradient><linearGradient id="paint1_linear_100_3795" x1="322.132" y1="0" x2="5.924" y2="198.96" gradientUnits="userSpaceOnUse"><stop stop-color="#3DCC79"/><stop offset="1" stop-color="#2C8A54"/></linearGradient><linearGradient id="paint2_linear_100_3795" x1="58.511" y1="167.487" x2="37.069" y2="182.167" gradientUnits="userSpaceOnUse"><stop stop-color="#fff"/><stop offset=".163" stop-color="#fff"/><stop offset=".252" stop-color="#DED9D9"/><stop offset=".448" stop-color="#fff"/><stop offset=".63" stop-color="#fff"/><stop offset=".789" stop-color="#DED9D9"/><stop offset=".906" stop-color="#fff"/><stop offset="1" stop-color="#fff"/></linearGradient><linearGradient id="paint3_linear_100_3795" x1="89.314" y1="167.487" x2="70.124" y2="177.81" gradientUnits="userSpaceOnUse"><stop stop-color="#fff"/><stop offset=".163" stop-color="#fff"/><stop offset=".252" stop-color="#DED9D9"/><stop offset=".448" stop-color="#fff"/><stop offset=".63" stop-color="#fff"/><stop offset=".789" stop-color="#DED9D9"/><stop offset=".906" stop-color="#fff"/><stop offset="1" stop-color="#fff"/></linearGradient><linearGradient id="paint4_linear_100_3795" x1="73.499" y1="105.551" x2="36.825" y2="123.785" gradientUnits="userSpaceOnUse"><stop stop-color="#fff"/><stop offset=".163" stop-color="#fff"/><stop offset=".252" stop-color="#DED9D9"/><stop offset=".448" stop-color="#fff"/><stop offset=".63" stop-color="#fff"/><stop offset=".789" stop-color="#DED9D9"/><stop offset=".906" stop-color="#fff"/><stop offset="1" stop-color="#fff"/></linearGradient><linearGradient id="paint5_linear_100_3795" x1="138.265" y1="105.561" x2="101.591" y2="123.794" gradientUnits="userSpaceOnUse"><stop stop-color="#fff"/><stop offset=".163" stop-color="#fff"/><stop offset=".252" stop-color="#DED9D9"/><stop offset=".448" stop-color="#fff"/><stop offset=".63" stop-color="#fff"/><stop offset=".789" stop-color="#DED9D9"/><stop offset=".906" stop-color="#fff"/><stop offset="1" stop-color="#fff"/></linearGradient><linearGradient id="paint6_linear_100_3795" x1="210.065" y1="105.551" x2="174.134" y2="122.829" gradientUnits="userSpaceOnUse"><stop stop-color="#fff"/><stop offset=".163" stop-color="#fff"/><stop offset=".252" stop-color="#DED9D9"/><stop offset=".448" stop-color="#fff"/><stop offset=".63" stop-color="#fff"/><stop offset=".789" stop-color="#DED9D9"/><stop offset=".906" stop-color="#fff"/><stop offset="1" stop-color="#fff"/></linearGradient><linearGradient id="paint7_linear_100_3795" x1="284.733" y1="105.561" x2="247.7" y2="124.275" gradientUnits="userSpaceOnUse"><stop stop-color="#fff"/><stop offset=".163" stop-color="#fff"/><stop offset=".252" stop-color="#DED9D9"/><stop offset=".448" stop-color="#fff"/><stop offset=".63" stop-color="#fff"/><stop offset=".789" stop-color="#DED9D9"/><stop offset=".906" stop-color="#fff"/><stop offset="1" stop-color="#fff"/></linearGradient><linearGradient id="paint8_linear_100_3795" x1="268.441" y1="24.253" x2="268.441" y2="40.099" gradientUnits="userSpaceOnUse"><stop stop-color="#fff"/><stop offset=".163" stop-color="#fff"/><stop offset=".252" stop-color="#DED9D9"/><stop offset=".448" stop-color="#fff"/><stop offset=".63" stop-color="#fff"/><stop offset=".789" stop-color="#DED9D9"/><stop offset=".906" stop-color="#fff"/><stop offset="1" stop-color="#fff"/></linearGradient><linearGradient id="paint9_linear_100_3795" x1="190.433" y1="148.839" x2="173.674" y2="157.981" gradientUnits="userSpaceOnUse"><stop stop-color="#fff"/><stop offset=".163" stop-color="#fff"/><stop offset=".252" stop-color="#DED9D9"/><stop offset=".448" stop-color="#fff"/><stop offset=".63" stop-color="#fff"/><stop offset=".789" stop-color="#DED9D9"/><stop offset=".906" stop-color="#fff"/><stop offset="1" stop-color="#fff"/></linearGradient><linearGradient id="paint10_linear_100_3795" x1="227.326" y1="148.346" x2="211.232" y2="156.519" gradientUnits="userSpaceOnUse"><stop stop-color="#fff"/><stop offset=".163" stop-color="#fff"/><stop offset=".252" stop-color="#DED9D9"/><stop offset=".448" stop-color="#fff"/><stop offset=".63" stop-color="#fff"/><stop offset=".789" stop-color="#DED9D9"/><stop offset=".906" stop-color="#fff"/><stop offset="1" stop-color="#fff"/></linearGradient><clipPath id="clip0_100_3795"><path fill="#fff" transform="translate(319.631 9.18)" d="M0 0h148.548v181.095H0z"/></clipPath><clipPath id="clip1_100_3795"><path fill="#fff" d="M0 0h322.132v197.786H0z"/></clipPath></defs></svg>