<svg width="16" height="16" fill="none" xmlns="http://www.w3.org/2000/svg"><path d="M4.646 4.646a.5.5 0 01.708 0L8 7.293l2.646-2.647a.5.5 0 01.708.708L8.707 8l2.647 2.646a.502.502 0 01-.708.708L8 8.707l-2.646 2.647a.5.5 0 11-.708-.708L7.293 8 4.646 5.354a.5.5 0 010-.708z" fill="#000"/><path d="M4.646 4.646a.5.5 0 01.708 0L8 7.293l2.646-2.647a.5.5 0 01.708.708L8.707 8l2.647 2.646a.502.502 0 01-.708.708L8 8.707l-2.646 2.647a.5.5 0 11-.708-.708L7.293 8 4.646 5.354a.5.5 0 010-.708z" fill="#505050"/></svg>