<svg width="29" height="29" fill="none" xmlns="http://www.w3.org/2000/svg"><g clip-path="url(#clip0_79_2501)"><path d="M27.399 0H1.6A1.601 1.601 0 000 1.601V27.4A1.601 1.601 0 001.601 29H14.5V17.521h-3.466v-4.23H14.5v-3.126c0-3.746 2.598-5.785 5.944-5.785 1.601 0 3.323.121 3.723.174v3.912H21.5c-1.82 0-2.168.86-2.168 2.13v2.696h4.335l-.566 4.23h-3.769V29H27.4a1.601 1.601 0 001.6-1.601V1.6A1.601 1.601 0 0027.399 0z" fill="#fff"/></g><defs><clipPath id="clip0_79_2501"><path fill="#fff" d="M0 0h29v29H0z"/></clipPath></defs></svg>