<svg width="30" height="29" fill="none" xmlns="http://www.w3.org/2000/svg"><g clip-path="url(#clip0_79_2507)" fill="#fff"><path d="M21.526 2.417a6.06 6.06 0 016.042 6.041v12.084a6.06 6.06 0 01-6.042 6.041H9.443A6.06 6.06 0 013.4 20.542V8.458a6.06 6.06 0 016.042-6.041h12.083zm0-2.417H9.443A8.485 8.485 0 00.984 8.458v12.084A8.485 8.485 0 009.443 29h12.083a8.485 8.485 0 008.458-8.458V8.458A8.485 8.485 0 0021.526 0z"/><path d="M23.339 8.458a1.813 1.813 0 11-.002-3.626 1.813 1.813 0 01.002 3.626zm-7.855 1.209a4.833 4.833 0 110 9.666 4.833 4.833 0 010-9.666zm0-2.417a7.25 7.25 0 100 14.5 7.25 7.25 0 000-14.5z"/></g><defs><clipPath id="clip0_79_2507"><path fill="#fff" transform="translate(.984)" d="M0 0h29v29H0z"/></clipPath></defs></svg>