<svg width="20" height="20" fill="none" xmlns="http://www.w3.org/2000/svg"><g clip-path="url(#clip0_79_2935)"><path d="M7.5 1.25V5H1.25V1.25H7.5zM1.25 0A1.25 1.25 0 000 1.25V5a1.25 1.25 0 001.25 1.25H7.5A1.25 1.25 0 008.75 5V1.25A1.25 1.25 0 007.5 0H1.25zm17.5 15v3.75H12.5V15h6.25zm-6.25-1.25A1.25 1.25 0 0011.25 15v3.75A1.25 1.25 0 0012.5 20h6.25A1.25 1.25 0 0020 18.75V15a1.25 1.25 0 00-1.25-1.25H12.5zM7.5 10v8.75H1.25V10H7.5zM1.25 8.75A1.25 1.25 0 000 10v8.75A1.25 1.25 0 001.25 20H7.5a1.25 1.25 0 001.25-1.25V10A1.25 1.25 0 007.5 8.75H1.25zm17.5-7.5V10H12.5V1.25h6.25zM12.5 0a1.25 1.25 0 00-1.25 1.25V10a1.25 1.25 0 001.25 1.25h6.25A1.25 1.25 0 0020 10V1.25A1.25 1.25 0 0018.75 0H12.5z" fill="#fff"/></g><defs><clipPath id="clip0_79_2935"><path fill="#fff" d="M0 0h20v20H0z"/></clipPath></defs></svg>