<svg width="213" height="40" fill="none" xmlns="http://www.w3.org/2000/svg"><path d="M89.224 24.8h-8.928L78.448 29h-2.472l7.608-16.8h2.376L93.592 29h-2.52l-1.848-4.2zm-.84-1.92l-3.624-8.232-3.624 8.232h7.248zm7.714-10.68h2.4V29h-2.4V12.2zM114.76 29l-3.624-5.16c-.448.032-.8.048-1.056.048h-4.152V29h-2.4V12.2h6.552c2.176 0 3.888.52 5.136 1.56 1.248 1.04 1.872 2.472 1.872 4.296 0 1.296-.32 2.4-.96 3.312-.64.912-1.552 1.576-2.736 1.992l3.984 5.64h-2.616zm-4.752-7.152c1.52 0 2.68-.328 3.48-.984.8-.656 1.2-1.592 1.2-2.808 0-1.216-.4-2.144-1.2-2.784-.8-.656-1.96-.984-3.48-.984h-4.08v7.56h4.08zm15.853 7.344c-1.264 0-2.488-.192-3.672-.576-1.168-.4-2.088-.912-2.76-1.536l.888-1.872c.64.576 1.456 1.048 2.448 1.416a9.327 9.327 0 003.096.528c1.392 0 2.432-.232 3.12-.696.688-.48 1.032-1.112 1.032-1.896 0-.576-.192-1.04-.576-1.392-.368-.368-.832-.648-1.392-.84-.544-.192-1.32-.408-2.328-.648-1.264-.304-2.288-.608-3.072-.912a5.232 5.232 0 01-1.992-1.392c-.544-.64-.816-1.496-.816-2.568 0-.896.232-1.704.696-2.424.48-.72 1.2-1.296 2.16-1.728.96-.432 2.152-.648 3.576-.648.992 0 1.968.128 2.928.384s1.784.624 2.472 1.104l-.792 1.92a8.398 8.398 0 00-2.256-1.008 8.16 8.16 0 00-2.352-.36c-1.36 0-2.384.248-3.072.744-.672.496-1.008 1.136-1.008 1.92 0 .576.192 1.048.576 1.416.384.352.856.632 1.416.84.576.192 1.352.4 2.328.624 1.264.304 2.28.608 3.048.912a5.032 5.032 0 011.968 1.392c.56.624.84 1.464.84 2.52 0 .88-.24 1.688-.72 2.424-.48.72-1.208 1.296-2.184 1.728-.976.416-2.176.624-3.6.624zm13.112-14.904h-5.76V12.2h13.896v2.088h-5.76V29h-2.376V14.288zM160.955 29l-3.624-5.16c-.448.032-.8.048-1.056.048h-4.152V29h-2.4V12.2h6.552c2.176 0 3.888.52 5.136 1.56 1.248 1.04 1.872 2.472 1.872 4.296 0 1.296-.32 2.4-.96 3.312-.64.912-1.552 1.576-2.736 1.992l3.984 5.64h-2.616zm-4.752-7.152c1.52 0 2.68-.328 3.48-.984.8-.656 1.2-1.592 1.2-2.808 0-1.216-.4-2.144-1.2-2.784-.8-.656-1.96-.984-3.48-.984h-4.08v7.56h4.08zm23.15 5.064V29h-12.192V12.2h11.856v2.088h-9.456v5.16h8.424v2.04h-8.424v5.424h9.792zm6.286-12.624v5.856h8.424v2.064h-8.424V29h-2.4V12.2h11.856v2.088h-9.456zM208.404 24.8h-8.928l-1.848 4.2h-2.472l7.608-16.8h2.376l7.632 16.8h-2.52l-1.848-4.2zm-.84-1.92l-3.624-8.232-3.624 8.232h7.248z" fill="#fff"/><g clip-path="url(#clip0_127_798)"><path d="M56 20.6c0-8.08-6.645-14.651-14.814-14.651-8.17 0-14.814 6.572-14.814 14.65 0 6.303-5.184 11.43-11.558 11.43-6.373 0-11.558-5.127-11.558-11.43 0-5.726 7.593-13.202 11.558-16.489 2.191 1.816 5.488 4.913 8.001 8.285a19.805 19.805 0 011.74-3.054C20.749 4.6 16.14 1.019 15.813.767L14.814 0l-.998.767C13.25 1.201 0 11.487 0 20.6c0 8.078 6.646 14.65 14.814 14.65 8.17 0 14.815-6.572 14.815-14.65 0-6.303 5.184-11.43 11.558-11.43 6.373 0 11.558 5.127 11.558 11.43 0 5.914-4.566 10.794-10.395 11.373v-2.258l5.593-5.531a1.14 1.14 0 000-1.626 1.171 1.171 0 00-1.644 0l-3.949 3.904v-5.866c0-.635-.521-1.15-1.163-1.15s-1.164.514-1.164 1.15v5.866l-3.947-3.904a1.173 1.173 0 00-1.646 0 1.141 1.141 0 000 1.627l5.593 5.531v2.258a11.586 11.586 0 01-6.848-3.146 19.728 19.728 0 01-1.627 2.885 14.843 14.843 0 008.475 3.49v3.65c0 .635.52 1.15 1.164 1.15.643 0 1.163-.514 1.163-1.15v-3.65c7.627-.59 13.651-6.91 13.651-14.6L56 20.598z" fill="url(#paint0_linear_127_798)"/><path d="M9.055 20.6c0-.636-.52-1.151-1.164-1.151-.643 0-1.163.514-1.163 1.15 0 4.409 3.627 7.996 8.085 7.996.643 0 1.164-.514 1.164-1.15 0-.637-.52-1.151-1.164-1.151-3.176 0-5.76-2.555-5.76-5.696l.002.001z" fill="url(#paint1_linear_127_798)"/></g><defs><linearGradient id="paint0_linear_127_798" x1="0" y1="20" x2="56" y2="20" gradientUnits="userSpaceOnUse"><stop stop-color="#42BABA"/><stop offset="1" stop-color="#8DB533"/></linearGradient><linearGradient id="paint1_linear_127_798" x1="6.729" y1="24.022" x2="15.977" y2="24.022" gradientUnits="userSpaceOnUse"><stop stop-color="#4BB9AA"/><stop offset="1" stop-color="#57B994"/></linearGradient><clipPath id="clip0_127_798"><path fill="#fff" d="M0 0h56v40H0z"/></clipPath></defs></svg>