<svg width="30" height="30" fill="none" xmlns="http://www.w3.org/2000/svg"><path d="M1.375 7.907v.283l.243.146 13.125 7.875.257.154.257-.154 13.125-7.875.243-.146V7.5a2.375 2.375 0 00-2.375-2.375H3.75A2.375 2.375 0 001.375 7.5v.407zm27.25 2.186V9.21l-.757.454-8.828 5.297-.705.424.7.43 8.828 5.433.762.469V10.093zm-.08 13.022l.096-.36-.318-.195-10.575-6.508-.258-.16-.26.157L15 17.385l-2.23-1.336-.26-.156-.258.159-10.575 6.506-.317.195.096.36c.135.505.433.952.848 1.27l.304-.396-.304.397c.414.318.923.49 1.446.491h22.5s0 0 0 0a2.374 2.374 0 002.294-1.76zm-27.17-2.293v.895l.762-.47 8.827-5.431.701-.431-.705-.424-8.828-5.297-.757-.454v11.612zM.5 7.5a3.25 3.25 0 013.25-3.25h22.5A3.25 3.25 0 0129.5 7.5v15a3.25 3.25 0 01-3.25 3.25H3.75A3.25 3.25 0 01.5 22.5v-15z" fill="#000" stroke="#263248"/></svg>