<svg width="138" height="138" fill="none" xmlns="http://www.w3.org/2000/svg"><path d="M138 69c0 38.108-30.892 69-69 69-38.108 0-69-30.892-69-69C0 30.892 30.892 0 69 0c38.108 0 69 30.892 69 69zM6.9 69c0 34.297 27.803 62.1 62.1 62.1s62.1-27.803 62.1-62.1S103.297 6.9 69 6.9 6.9 34.703 6.9 69z" fill="#D9D9D9"/><path d="M138 69c0 38.108-30.892 69-69 69-38.108 0-69-30.892-69-69C0 30.892 30.892 0 69 0c38.108 0 69 30.892 69 69zM6.9 69c0 34.297 27.803 62.1 62.1 62.1s62.1-27.803 62.1-62.1S103.297 6.9 69 6.9 6.9 34.703 6.9 69z" fill="url(#paint0_angular_319_55)"/><path d="M103.197 45.053a2.74 2.74 0 01.807 1.947 2.743 2.743 0 01-.807 1.947l-38.5 38.5a2.75 2.75 0 01-3.894 0l-19.25-19.25a2.753 2.753 0 113.894-3.894L62.75 81.612l36.553-36.559a2.746 2.746 0 013.001-.598c.334.139.637.342.893.598z" fill="#000"/><path d="M103.197 45.053a2.74 2.74 0 01.807 1.947 2.743 2.743 0 01-.807 1.947l-38.5 38.5a2.75 2.75 0 01-3.894 0l-19.25-19.25a2.753 2.753 0 113.894-3.894L62.75 81.612l36.553-36.559a2.746 2.746 0 013.001-.598c.334.139.637.342.893.598z" fill="url(#paint1_linear_319_55)"/><defs><radialGradient id="paint0_angular_319_55" cx="0" cy="0" r="1" gradientUnits="userSpaceOnUse" gradientTransform="matrix(68.9987 0 0 69.0037 68.999 68.996)"><stop offset=".373" stop-color="#42BABA"/><stop offset=".876" stop-color="#8DB533"/></radialGradient><linearGradient id="paint1_linear_319_55" x1="40.746" y1="66.249" x2="104.003" y2="66.249" gradientUnits="userSpaceOnUse"><stop stop-color="#42BABA"/><stop offset="1" stop-color="#8DB533"/></linearGradient></defs></svg>