<svg width="138" height="137" fill="none" xmlns="http://www.w3.org/2000/svg"><path d="M134.55 69c1.905 0 3.459-1.546 3.364-3.449a69 69 0 10-84.787 70.599c1.855.438 3.656-.81 4.001-2.684.345-1.874-.897-3.663-2.749-4.112a62.1 62.1 0 1176.625-63.802c.106 1.902 1.641 3.448 3.546 3.448z" fill="#D9D9D9"/><path d="M134.55 69c1.905 0 3.459-1.546 3.364-3.449a69 69 0 10-84.787 70.599c1.855.438 3.656-.81 4.001-2.684.345-1.874-.897-3.663-2.749-4.112a62.1 62.1 0 1176.625-63.802c.106 1.902 1.641 3.448 3.546 3.448z" fill="url(#paint0_angular_100_3994)"/><defs><radialGradient id="paint0_angular_100_3994" cx="0" cy="0" r="1" gradientUnits="userSpaceOnUse" gradientTransform="matrix(68.9987 0 0 69.0037 68.999 68.996)"><stop offset=".284" stop-color="#fff"/><stop offset=".504" stop-color="#42BABA"/><stop offset="1" stop-color="#8DB533"/></radialGradient></defs></svg>