<svg width="138" height="138" fill="none" xmlns="http://www.w3.org/2000/svg"><path d="M138 69c0 38.108-30.892 69-69 69-38.108 0-69-30.892-69-69C0 30.892 30.892 0 69 0c38.108 0 69 30.892 69 69zM6.9 69c0 34.297 27.803 62.1 62.1 62.1s62.1-27.803 62.1-62.1S103.297 6.9 69 6.9 6.9 34.703 6.9 69z" fill="#D9D9D9"/><path d="M138 69c0 38.108-30.892 69-69 69-38.108 0-69-30.892-69-69C0 30.892 30.892 0 69 0c38.108 0 69 30.892 69 69zM6.9 69c0 34.297 27.803 62.1 62.1 62.1s62.1-27.803 62.1-62.1S103.297 6.9 69 6.9 6.9 34.703 6.9 69z" fill="url(#paint0_angular_319_56)"/><path d="M138 69c0 38.108-30.892 69-69 69-38.108 0-69-30.892-69-69C0 30.892 30.892 0 69 0c38.108 0 69 30.892 69 69zM6.9 69c0 34.297 27.803 62.1 62.1 62.1s62.1-27.803 62.1-62.1S103.297 6.9 69 6.9 6.9 34.703 6.9 69z" fill="#FF6973"/><g clip-path="url(#clip0_319_56)"><path d="M44.587 42.587a3.936 3.936 0 015.575 0l20.837 20.845 20.838-20.845a3.942 3.942 0 115.575 5.576L76.567 69l20.845 20.837a3.942 3.942 0 11-5.576 5.576L71 74.568 50.162 95.413a3.941 3.941 0 11-5.575-5.576L65.431 69 44.586 48.163a3.938 3.938 0 010-5.576z" fill="#000"/><path d="M44.587 42.587a3.936 3.936 0 015.575 0l20.837 20.845 20.838-20.845a3.942 3.942 0 115.575 5.576L76.567 69l20.845 20.837a3.942 3.942 0 11-5.576 5.576L71 74.568 50.162 95.413a3.941 3.941 0 11-5.575-5.576L65.431 69 44.586 48.163a3.938 3.938 0 010-5.576z" fill="#FF6973"/></g><defs><radialGradient id="paint0_angular_319_56" cx="0" cy="0" r="1" gradientUnits="userSpaceOnUse" gradientTransform="matrix(68.9987 0 0 69.0037 68.999 68.996)"><stop offset=".373" stop-color="#42BABA"/><stop offset=".876" stop-color="#8DB533"/></radialGradient><clipPath id="clip0_319_56"><path fill="#fff" transform="translate(27 25)" d="M0 0h88v88H0z"/></clipPath></defs></svg>