<svg width="24" height="24" fill="none" xmlns="http://www.w3.org/2000/svg"><path d="M21.375 21.867h.502l-.002-.502c-.002-.588-.339-2.104-1.706-3.471C18.835 16.56 16.398 15.25 12 15.25c-4.4 0-6.835 1.31-8.169 2.644-1.368 1.368-1.701 2.883-1.706 3.47l-.004.503h19.254zM15.624 10a5.125 5.125 0 11-7.248-7.25 5.125 5.125 0 017.248 7.248zm-.619-.619a4.25 4.25 0 10-6.01-6.01 4.25 4.25 0 006.01 6.01zm7.745 11.995c0 .381-.094.634-.209.807a1.145 1.145 0 01-.452.386 1.804 1.804 0 01-.71.182h-.006.001H2.626h0-.005l-.04-.002a1.804 1.804 0 01-.669-.18 1.146 1.146 0 01-.453-.386c-.115-.173-.209-.426-.209-.807 0-.81.419-2.556 1.963-4.1 1.53-1.529 4.205-2.9 8.787-2.9 4.582 0 7.258 1.371 8.787 2.9 1.544 1.544 1.963 3.29 1.963 4.1z" fill="#000" stroke="#263248"/></svg>