<svg width="32" height="33" fill="none" xmlns="http://www.w3.org/2000/svg"><g clip-path="url(#clip0_79_2513)"><path d="M15.988 1.383A15.504 15.504 0 009.766 31.09a13.729 13.729 0 01.27-3.557c.295-1.26 1.993-8.451 1.993-8.451a5.92 5.92 0 01-.498-2.45c0-2.298 1.329-4.014 2.99-4.014a2.074 2.074 0 012.09 2.325c0 1.418-.907 3.536-1.37 5.502a2.396 2.396 0 002.45 2.983c2.934 0 4.914-3.772 4.914-8.243 0-3.398-2.291-5.939-6.45-5.939a7.347 7.347 0 00-7.634 7.427 4.469 4.469 0 001.024 3.039.758.758 0 01.222.865c-.076.284-.242.969-.318 1.246a.532.532 0 01-.776.388c-2.165-.886-3.176-3.248-3.176-5.925 0-4.402 3.717-9.683 11.08-9.683 5.918 0 9.814 4.284 9.814 8.88 0 6.083-3.384 10.624-8.367 10.624a4.449 4.449 0 01-3.787-1.935s-.9 3.571-1.094 4.263a12.884 12.884 0 01-1.557 3.322 15.506 15.506 0 104.402-30.373z" fill="#fff"/></g><defs><clipPath id="clip0_79_2513"><path fill="#fff" transform="translate(.484 1.383)" d="M0 0h31v31.014H0z"/></clipPath></defs></svg>