<svg width="30" height="30" fill="none" xmlns="http://www.w3.org/2000/svg"><path fill-rule="evenodd" clip-rule="evenodd" d="M21.287 3.086a.938.938 0 00-1.327 0L8.71 14.336a.936.936 0 000 1.328l11.25 11.25a.939.939 0 001.327-1.328L10.7 15 21.287 4.414a.938.938 0 000-1.328z" fill="#000"/><path fill-rule="evenodd" clip-rule="evenodd" d="M21.287 3.086a.938.938 0 00-1.327 0L8.71 14.336a.936.936 0 000 1.328l11.25 11.25a.939.939 0 001.327-1.328L10.7 15 21.287 4.414a.938.938 0 000-1.328z" fill="#B9C3D5"/></svg>