<svg width="20" height="20" fill="none" xmlns="http://www.w3.org/2000/svg"><circle cx="10" cy="10" r="9.75" transform="rotate(90 10 10)" stroke="#BCBCBC" stroke-width=".5"/><circle cx="10" cy="10" r="9.75" transform="rotate(90 10 10)" stroke="#E5E5E5" stroke-width=".5"/><circle cx="10" cy="10" r="9.75" transform="rotate(90 10 10)" stroke="#fff" stroke-width=".5"/><g clip-path="url(#clip0_79_4003)"><path d="M10.1 9.4v.5h5.3a.1.1 0 010 .2h-5.3v5.3a.1.1 0 01-.2 0v-5.3H4.6a.1.1 0 01-.1-.1.1.1 0 01.1-.1h5.3V4.6a.1.1 0 01.1-.1.1.1 0 01.1.1v4.8z" fill="#000"/><path d="M10.1 9.4v.5h5.3a.1.1 0 010 .2h-5.3v5.3a.1.1 0 01-.2 0v-5.3H4.6a.1.1 0 01-.1-.1.1.1 0 01.1-.1h5.3V4.6a.1.1 0 01.1-.1.1.1 0 01.1.1v4.8z" fill="#B9C3D5"/><path d="M10.1 9.4v.5h5.3a.1.1 0 010 .2h-5.3v5.3a.1.1 0 01-.2 0v-5.3H4.6a.1.1 0 01-.1-.1.1.1 0 01.1-.1h5.3V4.6a.1.1 0 01.1-.1.1.1 0 01.1.1v4.8z" fill="#fff"/><path d="M10.1 9.4v.5h5.3a.1.1 0 010 .2h-5.3v5.3a.1.1 0 01-.2 0v-5.3H4.6a.1.1 0 01-.1-.1.1.1 0 01.1-.1h5.3V4.6a.1.1 0 01.1-.1.1.1 0 01.1.1v4.8z" stroke="#BCBCBC"/><path d="M10.1 9.4v.5h5.3a.1.1 0 010 .2h-5.3v5.3a.1.1 0 01-.2 0v-5.3H4.6a.1.1 0 01-.1-.1.1.1 0 01.1-.1h5.3V4.6a.1.1 0 01.1-.1.1.1 0 01.1.1v4.8z" stroke="#fff"/></g><defs><clipPath id="clip0_79_4003"><path fill="#fff" transform="translate(4 4)" d="M0 0h12v12H0z"/></clipPath></defs></svg>