<svg width="40" height="40" fill="none" xmlns="http://www.w3.org/2000/svg"><path d="M5 5a5 5 0 015-5h20a5 5 0 015 5v30a5 5 0 01-5 5H10a5 5 0 01-5-5V5zm5-2.5A2.5 2.5 0 007.5 5v10h25V5A2.5 2.5 0 0030 2.5H10zm22.5 15H15v5h17.5v-5zm0 7.5H15v5h17.5v-5zm0 7.5H15v5h15a2.5 2.5 0 002.5-2.5v-2.5zm-20 5v-5h-5V35a2.5 2.5 0 002.5 2.5h2.5zm-5-7.5h5v-5h-5v5zm0-7.5h5v-5h-5v5z" fill="#000"/><path d="M5 5a5 5 0 015-5h20a5 5 0 015 5v30a5 5 0 01-5 5H10a5 5 0 01-5-5V5zm5-2.5A2.5 2.5 0 007.5 5v10h25V5A2.5 2.5 0 0030 2.5H10zm22.5 15H15v5h17.5v-5zm0 7.5H15v5h17.5v-5zm0 7.5H15v5h15a2.5 2.5 0 002.5-2.5v-2.5zm-20 5v-5h-5V35a2.5 2.5 0 002.5 2.5h2.5zm-5-7.5h5v-5h-5v5zm0-7.5h5v-5h-5v5z" fill="#8BB637"/><path d="M5 5a5 5 0 015-5h20a5 5 0 015 5v30a5 5 0 01-5 5H10a5 5 0 01-5-5V5zm5-2.5A2.5 2.5 0 007.5 5v10h25V5A2.5 2.5 0 0030 2.5H10zm22.5 15H15v5h17.5v-5zm0 7.5H15v5h17.5v-5zm0 7.5H15v5h15a2.5 2.5 0 002.5-2.5v-2.5zm-20 5v-5h-5V35a2.5 2.5 0 002.5 2.5h2.5zm-5-7.5h5v-5h-5v5zm0-7.5h5v-5h-5v5z" fill="#0C8774"/></svg>