<svg width="40" height="40" fill="none" xmlns="http://www.w3.org/2000/svg"><path d="M0 10a5 5 0 015-5h30a5 5 0 015 5v20a5 5 0 01-5 5H5a5 5 0 01-5-5V10zm5-2.5A2.5 2.5 0 002.5 10v2.5h35V10A2.5 2.5 0 0035 7.5H5zm32.5 10h-35V30A2.5 2.5 0 005 32.5h30a2.5 2.5 0 002.5-2.5V17.5z" fill="#000"/><path d="M0 10a5 5 0 015-5h30a5 5 0 015 5v20a5 5 0 01-5 5H5a5 5 0 01-5-5V10zm5-2.5A2.5 2.5 0 002.5 10v2.5h35V10A2.5 2.5 0 0035 7.5H5zm32.5 10h-35V30A2.5 2.5 0 005 32.5h30a2.5 2.5 0 002.5-2.5V17.5z" fill="#8BB637"/><path d="M0 10a5 5 0 015-5h30a5 5 0 015 5v20a5 5 0 01-5 5H5a5 5 0 01-5-5V10zm5-2.5A2.5 2.5 0 002.5 10v2.5h35V10A2.5 2.5 0 0035 7.5H5zm32.5 10h-35V30A2.5 2.5 0 005 32.5h30a2.5 2.5 0 002.5-2.5V17.5z" fill="#0C8774"/><path d="M5 25a2.5 2.5 0 012.5-2.5H10a2.5 2.5 0 012.5 2.5v2.5A2.5 2.5 0 0110 30H7.5A2.5 2.5 0 015 27.5V25z" fill="#000"/><path d="M5 25a2.5 2.5 0 012.5-2.5H10a2.5 2.5 0 012.5 2.5v2.5A2.5 2.5 0 0110 30H7.5A2.5 2.5 0 015 27.5V25z" fill="#8BB637"/><path d="M5 25a2.5 2.5 0 012.5-2.5H10a2.5 2.5 0 012.5 2.5v2.5A2.5 2.5 0 0110 30H7.5A2.5 2.5 0 015 27.5V25z" fill="#0C8774"/></svg>