<svg width="40" height="40" fill="none" xmlns="http://www.w3.org/2000/svg"><g clip-path="url(#clip0_86_1564)"><path d="M7.375 1a2.5 2.5 0 012-1h21.25a2.5 2.5 0 012 1l7.125 9.5c.162.216.25.48.25.75V37.5a2.5 2.5 0 01-2.5 2.5h-35A2.5 2.5 0 010 37.5V11.25c0-.27.088-.534.25-.75L7.375 1zM18.75 2.5H9.375L3.75 10h15V2.5zm2.5 0V10h15l-5.625-7.5H21.25zm16.25 10h-35v25h35v-25z" fill="#000"/><path d="M7.375 1a2.5 2.5 0 012-1h21.25a2.5 2.5 0 012 1l7.125 9.5c.162.216.25.48.25.75V37.5a2.5 2.5 0 01-2.5 2.5h-35A2.5 2.5 0 010 37.5V11.25c0-.27.088-.534.25-.75L7.375 1zM18.75 2.5H9.375L3.75 10h15V2.5zm2.5 0V10h15l-5.625-7.5H21.25zm16.25 10h-35v25h35v-25z" fill="#8BB637"/><path d="M7.375 1a2.5 2.5 0 012-1h21.25a2.5 2.5 0 012 1l7.125 9.5c.162.216.25.48.25.75V37.5a2.5 2.5 0 01-2.5 2.5h-35A2.5 2.5 0 010 37.5V11.25c0-.27.088-.534.25-.75L7.375 1zM18.75 2.5H9.375L3.75 10h15V2.5zm2.5 0V10h15l-5.625-7.5H21.25zm16.25 10h-35v25h35v-25z" fill="#0C8774"/></g><defs><clipPath id="clip0_86_1564"><path fill="#fff" d="M0 0h40v40H0z"/></clipPath></defs></svg>