<svg width="16" height="16" fill="none" xmlns="http://www.w3.org/2000/svg"><g clip-path="url(#clip0_100_4135)"><path d="M13.715 0a.571.571 0 00-.571.571V2.66A7.414 7.414 0 00.572 8a.571.571 0 101.143 0 6.286 6.286 0 0110.922-4.243l-2.531.844a.572.572 0 10.361 1.086l3.429-1.143a.571.571 0 00.39-.544V.571a.571.571 0 00-.57-.571z" fill="#000"/><path d="M13.715 0a.571.571 0 00-.571.571V2.66A7.414 7.414 0 00.572 8a.571.571 0 101.143 0 6.286 6.286 0 0110.922-4.243l-2.531.844a.572.572 0 10.361 1.086l3.429-1.143a.571.571 0 00.39-.544V.571a.571.571 0 00-.57-.571z" fill="#BCBCBC"/><path d="M13.715 0a.571.571 0 00-.571.571V2.66A7.414 7.414 0 00.572 8a.571.571 0 101.143 0 6.286 6.286 0 0110.922-4.243l-2.531.844a.572.572 0 10.361 1.086l3.429-1.143a.571.571 0 00.39-.544V.571a.571.571 0 00-.57-.571z" fill="#B9C3D5"/><path d="M13.715 0a.571.571 0 00-.571.571V2.66A7.414 7.414 0 00.572 8a.571.571 0 101.143 0 6.286 6.286 0 0110.922-4.243l-2.531.844a.572.572 0 10.361 1.086l3.429-1.143a.571.571 0 00.39-.544V.571a.571.571 0 00-.57-.571z" fill="#B9C3D5"/><path d="M14.858 7.428a.571.571 0 00-.572.572 6.286 6.286 0 01-10.922 4.243l2.531-.844a.572.572 0 00-.36-1.086l-3.43 1.143a.572.572 0 00-.39.544v3.428a.571.571 0 101.143 0v-2.087A7.414 7.414 0 0015.429 8a.571.571 0 00-.571-.572z" fill="#000"/><path d="M14.858 7.428a.571.571 0 00-.572.572 6.286 6.286 0 01-10.922 4.243l2.531-.844a.572.572 0 00-.36-1.086l-3.43 1.143a.572.572 0 00-.39.544v3.428a.571.571 0 101.143 0v-2.087A7.414 7.414 0 0015.429 8a.571.571 0 00-.571-.572z" fill="#BCBCBC"/><path d="M14.858 7.428a.571.571 0 00-.572.572 6.286 6.286 0 01-10.922 4.243l2.531-.844a.572.572 0 00-.36-1.086l-3.43 1.143a.572.572 0 00-.39.544v3.428a.571.571 0 101.143 0v-2.087A7.414 7.414 0 0015.429 8a.571.571 0 00-.571-.572z" fill="#B9C3D5"/></g><defs><clipPath id="clip0_100_4135"><path fill="#fff" d="M0 0h16v16H0z"/></clipPath></defs></svg>