<svg width="26" height="22" fill="none" xmlns="http://www.w3.org/2000/svg"><path fill-rule="evenodd" clip-rule="evenodd" d="M.5 11a1.562 1.562 0 011.563-1.562h18.103l-6.71-6.707A1.565 1.565 0 0115.67.52l9.375 9.375a1.562 1.562 0 010 2.212l-9.375 9.375a1.565 1.565 0 01-2.213-2.212l6.71-6.706H2.062A1.563 1.563 0 01.5 11z" fill="#000"/><path fill-rule="evenodd" clip-rule="evenodd" d="M.5 11a1.562 1.562 0 011.563-1.562h18.103l-6.71-6.707A1.565 1.565 0 0115.67.52l9.375 9.375a1.562 1.562 0 010 2.212l-9.375 9.375a1.565 1.565 0 01-2.213-2.212l6.71-6.706H2.062A1.563 1.563 0 01.5 11z" fill="#B9C3D5"/></svg>