<svg width="18" height="17" fill="none" xmlns="http://www.w3.org/2000/svg"><path d="M8.524.464a.5.5 0 01.952 0l1.657 5.1a.5.5 0 00.475.346h5.364a.5.5 0 01.294.904l-4.34 3.153a.5.5 0 00-.181.559l1.657 5.1a.5.5 0 01-.77.56l-4.338-3.153a.5.5 0 00-.588 0l-4.339 3.153a.5.5 0 01-.77-.56l1.658-5.1a.5.5 0 00-.182-.56L.734 6.815a.5.5 0 01.294-.904h5.364a.5.5 0 00.475-.346l1.657-5.1z" fill="#D9D9D9"/><path d="M8.524.464a.5.5 0 01.952 0l1.657 5.1a.5.5 0 00.475.346h5.364a.5.5 0 01.294.904l-4.34 3.153a.5.5 0 00-.181.559l1.657 5.1a.5.5 0 01-.77.56l-4.338-3.153a.5.5 0 00-.588 0l-4.339 3.153a.5.5 0 01-.77-.56l1.658-5.1a.5.5 0 00-.182-.56L.734 6.815a.5.5 0 01.294-.904h5.364a.5.5 0 00.475-.346l1.657-5.1z" fill="#FC0"/></svg>