<svg width="16" height="17" fill="none" xmlns="http://www.w3.org/2000/svg"><path d="M2.5 8.885a5.5 5.5 0 018.25-4.764.5.5 0 00.5-.866 6.5 6.5 0 103.25 5.63.5.5 0 00-1 0 5.5 5.5 0 01-11 0z" fill="#000"/><path d="M2.5 8.885a5.5 5.5 0 018.25-4.764.5.5 0 00.5-.866 6.5 6.5 0 103.25 5.63.5.5 0 00-1 0 5.5 5.5 0 01-11 0z" fill="#8BB637"/><path d="M2.5 8.885a5.5 5.5 0 018.25-4.764.5.5 0 00.5-.866 6.5 6.5 0 103.25 5.63.5.5 0 00-1 0 5.5 5.5 0 01-11 0z" fill="#0C8774"/><path d="M15.354 4.239a.501.501 0 10-.708-.708L8 10.178 5.354 7.53a.5.5 0 10-.708.708l3 3a.5.5 0 00.708 0l7-7z" fill="#000"/><path d="M15.354 4.239a.501.501 0 10-.708-.708L8 10.178 5.354 7.53a.5.5 0 10-.708.708l3 3a.5.5 0 00.708 0l7-7z" fill="#8BB637"/><path d="M15.354 4.239a.501.501 0 10-.708-.708L8 10.178 5.354 7.53a.5.5 0 10-.708.708l3 3a.5.5 0 00.708 0l7-7z" fill="#0C8774"/></svg>