<svg width="20" height="20" fill="none" xmlns="http://www.w3.org/2000/svg"><path d="M8.125 1.25h3.75a.625.625 0 01.625.625v1.25h-5v-1.25a.625.625 0 01.625-.625zm5.625 1.875v-1.25A1.875 1.875 0 0011.875 0h-3.75A1.875 1.875 0 006.25 1.875v1.25H1.875a.625.625 0 000 1.25h.672L3.614 17.7A2.5 2.5 0 006.106 20h7.788a2.5 2.5 0 002.492-2.3l1.067-13.325h.672a.625.625 0 100-1.25H13.75zm2.448 1.25L15.14 17.6a1.25 1.25 0 01-1.246 1.15H6.106A1.25 1.25 0 014.86 17.6L3.802 4.375h12.396zm-9.36 1.25a.625.625 0 01.66.588l.626 10.624a.625.625 0 01-1.248.076L6.25 6.287a.625.625 0 01.588-.662zm6.323 0a.625.625 0 01.588.662l-.625 10.626a.625.625 0 11-1.248-.076l.625-10.624a.625.625 0 01.66-.588zm-3.161 0a.625.625 0 01.625.625v10.625a.624.624 0 11-1.25 0V6.25A.625.625 0 0110 5.625z" fill="#000"/><path d="M8.125 1.25h3.75a.625.625 0 01.625.625v1.25h-5v-1.25a.625.625 0 01.625-.625zm5.625 1.875v-1.25A1.875 1.875 0 0011.875 0h-3.75A1.875 1.875 0 006.25 1.875v1.25H1.875a.625.625 0 000 1.25h.672L3.614 17.7A2.5 2.5 0 006.106 20h7.788a2.5 2.5 0 002.492-2.3l1.067-13.325h.672a.625.625 0 100-1.25H13.75zm2.448 1.25L15.14 17.6a1.25 1.25 0 01-1.246 1.15H6.106A1.25 1.25 0 014.86 17.6L3.802 4.375h12.396zm-9.36 1.25a.625.625 0 01.66.588l.626 10.624a.625.625 0 01-1.248.076L6.25 6.287a.625.625 0 01.588-.662zm6.323 0a.625.625 0 01.588.662l-.625 10.626a.625.625 0 11-1.248-.076l.625-10.624a.625.625 0 01.66-.588zm-3.161 0a.625.625 0 01.625.625v10.625a.624.624 0 11-1.25 0V6.25A.625.625 0 0110 5.625z" fill="#FF6973"/></svg>