<svg width="31" height="28" fill="none" xmlns="http://www.w3.org/2000/svg"><mask id="path-1-inside-1_301_91" fill="#fff"><path d="M13.499 1.01c.767-1.347 2.708-1.347 3.475 0l13.22 23.21c.76 1.333-.204 2.99-1.738 2.99H2.018c-1.534 0-2.497-1.657-1.738-2.99L13.5 1.01z"/></mask><path d="M13.499 1.01c.767-1.347 2.708-1.347 3.475 0l13.22 23.21c.76 1.333-.204 2.99-1.738 2.99H2.018c-1.534 0-2.497-1.657-1.738-2.99L13.5 1.01z" fill="#fff"/><path d="M.28 24.219l-.869-.495.87.495zm29.913 0l-.869.495.869-.495zM16.974 1.01l.87-.495-.87.495zm-3.475 0l.869.495-.87-.495zm2.606.495l13.22 23.209 1.737-.99L17.843.515l-1.738.99zm12.35 24.704H2.018v2h26.437v-2zM1.15 24.714L14.368 1.505 12.63.515-.59 23.725l1.738.989zm.87 1.495a1 1 0 01-.87-1.495l-1.738-.99c-1.139 2 .306 4.485 2.607 4.485v-2zm27.305-1.495a1 1 0 01-.869 1.495v2c2.302 0 3.746-2.485 2.607-4.485l-1.738.99zM17.844.515c-1.151-2.02-4.064-2.02-5.214 0l1.738.99a1 1 0 011.737 0l1.738-.99z" fill="#B9C3D5" mask="url(#path-1-inside-1_301_91)"/></svg>