<svg width="16" height="16" fill="none" xmlns="http://www.w3.org/2000/svg"><path fill-rule="evenodd" clip-rule="evenodd" d="M9.224 1.553a.5.5 0 00-.671.223l-3 6a.5.5 0 000 .448l3 6a.5.5 0 10.894-.448L6.56 8l2.887-5.776a.5.5 0 00-.223-.671z" fill="#45BAB6"/><path fill-rule="evenodd" clip-rule="evenodd" d="M9.224 1.553a.5.5 0 00-.671.223l-3 6a.5.5 0 000 .448l3 6a.5.5 0 10.894-.448L6.56 8l2.887-5.776a.5.5 0 00-.223-.671z" fill="#8BB637"/><path fill-rule="evenodd" clip-rule="evenodd" d="M9.224 1.553a.5.5 0 00-.671.223l-3 6a.5.5 0 000 .448l3 6a.5.5 0 10.894-.448L6.56 8l2.887-5.776a.5.5 0 00-.223-.671z" fill="#fff"/></svg>